<svg viewBox="0 0 32 32" fill="none" xmlns="http://www.w3.org/2000/svg">
<path d="M28.0001 5.33317H24.0001V3.99984C24.0001 3.64622 23.8596 3.30708 23.6096 3.05703C23.3595 2.80698 23.0204 2.6665 22.6667 2.6665H9.33341C8.97979 2.6665 8.64065 2.80698 8.39061 3.05703C8.14056 3.30708 8.00008 3.64622 8.00008 3.99984V5.33317H4.00008C3.64646 5.33317 3.30732 5.47365 3.05727 5.7237C2.80722 5.97374 2.66675 6.31288 2.66675 6.6665V10.6665C2.66675 12.081 3.22865 13.4375 4.22885 14.4377C5.22904 15.4379 6.58559 15.9998 8.00008 15.9998H10.0534C11.2595 17.3454 12.8855 18.243 14.6667 18.5465V21.3332H13.3334C12.2725 21.3332 11.2551 21.7546 10.505 22.5047C9.75484 23.2549 9.33341 24.2723 9.33341 25.3332V27.9998C9.33341 28.3535 9.47389 28.6926 9.72394 28.9426C9.97399 29.1927 10.3131 29.3332 10.6667 29.3332H21.3334C21.687 29.3332 22.0262 29.1927 22.2762 28.9426C22.5263 28.6926 22.6667 28.3535 22.6667 27.9998V25.3332C22.6667 24.2723 22.2453 23.2549 21.4952 22.5047C20.745 21.7546 19.7276 21.3332 18.6667 21.3332H17.3334V18.5465C19.1147 18.243 20.7407 17.3454 21.9467 15.9998H24.0001C25.4146 15.9998 26.7711 15.4379 27.7713 14.4377C28.7715 13.4375 29.3334 12.081 29.3334 10.6665V6.6665C29.3334 6.31288 29.1929 5.97374 28.9429 5.7237C28.6928 5.47365 28.3537 5.33317 28.0001 5.33317ZM8.00008 13.3332C7.29284 13.3332 6.61456 13.0522 6.11446 12.5521C5.61437 12.052 5.33341 11.3737 5.33341 10.6665V7.99984H8.00008V10.6665C8.00302 11.5754 8.16083 12.4772 8.46675 13.3332H8.00008ZM18.6667 23.9998C19.0204 23.9998 19.3595 24.1403 19.6096 24.3904C19.8596 24.6404 20.0001 24.9795 20.0001 25.3332V26.6665H12.0001V25.3332C12.0001 24.9795 12.1406 24.6404 12.3906 24.3904C12.6407 24.1403 12.9798 23.9998 13.3334 23.9998H18.6667ZM21.3334 10.6665C21.3334 12.081 20.7715 13.4375 19.7713 14.4377C18.7711 15.4379 17.4146 15.9998 16.0001 15.9998C14.5856 15.9998 13.229 15.4379 12.2288 14.4377C11.2287 13.4375 10.6667 12.081 10.6667 10.6665V5.33317H21.3334V10.6665ZM26.6667 10.6665C26.6667 11.3737 26.3858 12.052 25.8857 12.5521C25.3856 13.0522 24.7073 13.3332 24.0001 13.3332H23.5334C23.8393 12.4772 23.9971 11.5754 24.0001 10.6665V7.99984H26.6667V10.6665Z" fill="currentColor"/>
</svg>
