<svg viewBox="0 0 32 32" fill="none" xmlns="http://www.w3.org/2000/svg">
<path d="M26.3915 18.0035C26.0135 17.4818 25.81 16.854 25.81 16.2098C25.81 15.5655 26.0135 14.9377 26.3915 14.416L27.1661 13.3459C27.2608 13.2152 27.3231 13.0639 27.3479 12.9044C27.3727 12.745 27.3593 12.5819 27.3087 12.4286C27.2577 12.277 27.1722 12.1392 27.0591 12.026C26.9459 11.9129 26.8081 11.8274 26.6565 11.7764L25.4029 11.3687C24.7888 11.1706 24.2535 10.7825 23.8743 10.2604C23.4951 9.73837 23.2916 9.10931 23.2932 8.46406V7.13914C23.2931 6.97828 23.2549 6.81973 23.1817 6.67646C23.1086 6.53319 23.0026 6.40927 22.8724 6.31483C22.7421 6.2204 22.5914 6.15813 22.4325 6.13311C22.2736 6.1081 22.111 6.12106 21.9581 6.17093L20.6943 6.5786C20.0808 6.77713 19.4202 6.7766 18.807 6.57707C18.1938 6.37755 17.6593 5.98925 17.2801 5.4677L16.5055 4.39757C16.4066 4.27355 16.2811 4.1734 16.1381 4.10457C15.9952 4.03574 15.8386 4 15.68 4C15.5214 4 15.3648 4.03574 15.2219 4.10457C15.0789 4.1734 14.9534 4.27355 14.8545 4.39757L14.0799 5.4677C13.7007 5.98925 13.1662 6.37755 12.553 6.57707C11.9398 6.7766 11.2792 6.77713 10.6657 6.5786L9.40191 6.17093C9.24897 6.12106 9.0864 6.1081 8.9275 6.13311C8.76859 6.15813 8.61787 6.2204 8.48764 6.31483C8.35742 6.40927 8.2514 6.53319 8.17825 6.67646C8.10511 6.81973 8.06691 6.97828 8.0668 7.13914V8.46406C8.06836 9.10931 7.86486 9.73837 7.48567 10.2604C7.10648 10.7825 6.57121 11.1706 5.95711 11.3687L4.70353 11.7764C4.55187 11.8274 4.41408 11.9129 4.30092 12.026C4.18777 12.1392 4.10232 12.277 4.05126 12.4286C4.00072 12.5819 3.98731 12.745 4.01211 12.9044C4.03692 13.0639 4.09924 13.2152 4.19395 13.3459L4.96852 14.416C5.34647 14.9377 5.54997 15.5655 5.54997 16.2098C5.54997 16.854 5.34647 17.4818 4.96852 18.0035L4.19395 19.0736C4.09924 19.2043 4.03692 19.3556 4.01211 19.5151C3.98731 19.6745 4.00072 19.8376 4.05126 19.9909C4.10232 20.1425 4.18777 20.2803 4.30092 20.3935C4.41408 20.5066 4.55187 20.5921 4.70353 20.6431L5.95711 21.0508C6.57121 21.2489 7.10648 21.637 7.48567 22.1591C7.86486 22.6811 8.06836 23.3102 8.0668 23.9554V25.2804C8.06691 25.4412 8.10511 25.5998 8.17825 25.743C8.2514 25.8863 8.35742 26.0102 8.48764 26.1047C8.61787 26.1991 8.76859 26.2614 8.9275 26.2864C9.0864 26.3114 9.24897 26.2984 9.40191 26.2486L10.6555 25.8409C11.2703 25.639 11.9334 25.6379 12.549 25.8375C13.1645 26.0372 13.7007 26.4274 14.0799 26.9518L14.8545 28.0219C14.9496 28.1515 15.0739 28.2568 15.2174 28.3294C15.3608 28.402 15.5193 28.4399 15.68 28.4399C15.8407 28.4399 15.9992 28.402 16.1426 28.3294C16.2861 28.2568 16.4104 28.1515 16.5055 28.0219L17.2801 26.9518C17.66 26.4282 18.1961 26.0385 18.8115 25.8389C19.4268 25.6393 20.0896 25.64 20.7045 25.8409L21.9581 26.2486C22.111 26.2984 22.2736 26.3114 22.4325 26.2864C22.5914 26.2614 22.7421 26.1991 22.8724 26.1047C23.0026 26.0102 23.1086 25.8863 23.1817 25.743C23.2549 25.5998 23.2931 25.4412 23.2932 25.2804V23.9554C23.2916 23.3102 23.4951 22.6811 23.8743 22.1591C24.2535 21.637 24.7888 21.2489 25.4029 21.0508L26.6565 20.6431C26.8081 20.5921 26.9459 20.5066 27.0591 20.3935C27.1722 20.2803 27.2577 20.1425 27.3087 19.9909C27.3593 19.8376 27.3727 19.6745 27.3479 19.5151C27.3231 19.3556 27.2608 19.2043 27.1661 19.0736L26.3915 18.0035ZM20.4803 14.892L15.3844 19.9878C15.1933 20.1789 14.9341 20.2862 14.6639 20.2862C14.3936 20.2862 14.1345 20.1789 13.9433 19.9878L10.8858 16.9303C10.7885 16.8363 10.7108 16.7238 10.6574 16.5995C10.604 16.4751 10.5759 16.3414 10.5747 16.2061C10.5735 16.0708 10.5993 15.9366 10.6506 15.8113C10.7018 15.6861 10.7775 15.5723 10.8732 15.4766C10.9689 15.3809 11.0827 15.3052 11.2079 15.254C11.3332 15.2027 11.4674 15.1769 11.6027 15.1781C11.738 15.1793 11.8718 15.2074 11.9961 15.2608C12.1205 15.3142 12.2329 15.3919 12.3269 15.4892L14.6608 17.8262L19.0361 13.4509C19.2283 13.2652 19.4858 13.1625 19.753 13.1648C20.0202 13.1671 20.2759 13.2743 20.4648 13.4633C20.6538 13.6522 20.761 13.9079 20.7633 14.1751C20.7656 14.4423 20.6629 14.6997 20.4772 14.892H20.4803Z" fill="currentColor"/>
</svg>
