<svg viewBox="0 0 32 32" fill="none" xmlns="http://www.w3.org/2000/svg">
<g clip-path="url(#clip0_1569_4594)">
<path d="M19.6263 9.2726H18.7076C18.4601 9.2726 18.1713 9.0476 18.0738 8.78135C17.9876 8.53385 17.8826 8.2901 17.7663 8.0501C17.6426 7.79885 17.6876 7.4351 17.8638 7.25885L18.5201 6.6026C18.9776 6.1451 18.9776 5.39885 18.5201 4.94135L17.4588 3.8801C17.2376 3.65885 16.9413 3.5351 16.6263 3.5351C16.3113 3.5351 16.0151 3.6551 15.7938 3.8801L15.1413 4.53635C15.0363 4.64135 14.8601 4.7051 14.6726 4.7051C14.5563 4.7051 14.4438 4.6826 14.3501 4.63385C14.1138 4.5176 13.8663 4.41635 13.6188 4.32635C13.3526 4.2326 13.1276 3.9401 13.1276 3.6926V2.77385C13.1276 2.12885 12.5988 1.6001 11.9501 1.6001H10.4501C9.80135 1.6001 9.27635 2.12885 9.27635 2.77385V3.6926C9.27635 3.9401 9.05135 4.2326 8.7851 4.32635C8.5376 4.4126 8.2901 4.5176 8.05385 4.6301C7.9601 4.6751 7.8476 4.70135 7.73135 4.70135C7.54385 4.70135 7.3676 4.6376 7.2626 4.5326L6.6101 3.8801C6.38885 3.65885 6.0926 3.5351 5.7776 3.5351C5.4626 3.5351 5.16635 3.65885 4.9451 3.8801L3.8801 4.9451C3.65885 5.16635 3.5351 5.4626 3.5351 5.7776C3.5351 6.0926 3.65885 6.3851 3.8801 6.60635L4.53635 7.2626C4.7126 7.43885 4.7576 7.8026 4.6376 8.05385C4.52135 8.29385 4.4201 8.5376 4.3301 8.7851C4.23635 9.05135 3.94385 9.27635 3.69635 9.27635H2.7776C2.12885 9.2726 1.6001 9.80135 1.6001 10.4501V11.9501C1.6001 12.5988 2.12885 13.1238 2.77385 13.1238H3.6926C3.9401 13.1238 4.2326 13.3488 4.32635 13.6151C4.4126 13.8626 4.5176 14.1063 4.63385 14.3463C4.7576 14.5976 4.70885 14.9613 4.5326 15.1376L3.87635 15.7938C3.41885 16.2513 3.41885 16.9976 3.87635 17.4551L4.94135 18.5201C5.1626 18.7413 5.45885 18.8651 5.77385 18.8651C6.08885 18.8651 6.38135 18.7413 6.60635 18.5201L7.2626 17.8638C7.3676 17.7588 7.54385 17.6951 7.73135 17.6951C7.8476 17.6951 7.9601 17.7176 8.05385 17.7663C8.2901 17.8826 8.5376 17.9838 8.7851 18.0701C9.05135 18.1638 9.27635 18.4563 9.27635 18.7038V19.6226C9.27635 20.2713 9.8051 20.7963 10.4501 20.7963H11.9501C12.5988 20.7963 13.1276 20.2676 13.1276 19.6226V18.7038C13.1276 18.4563 13.3526 18.1638 13.6188 18.0701C13.8663 17.9838 14.1138 17.8788 14.3501 17.7663C14.4401 17.7213 14.5563 17.6951 14.6726 17.6951C14.8601 17.6951 15.0363 17.7588 15.1413 17.8638L15.7938 18.5201C16.0151 18.7413 16.3113 18.8651 16.6263 18.8651C16.9413 18.8651 17.2338 18.7413 17.4588 18.5201L18.5201 17.4551C18.9776 16.9976 18.9776 16.2513 18.5201 15.7938L17.8676 15.1413C17.6913 14.9651 17.6463 14.6013 17.7701 14.3501C17.8863 14.1138 17.9876 13.8663 18.0738 13.6188C18.1676 13.3526 18.4601 13.1276 18.7076 13.1276H19.6263C20.2751 13.1276 20.8001 12.5988 20.8001 11.9538V10.4501C20.8001 9.80135 20.2713 9.2726 19.6263 9.2726ZM11.2001 14.6463C9.29885 14.6463 7.75385 13.1013 7.75385 11.2001C7.75385 9.3026 9.29885 7.75385 11.2001 7.75385C13.1013 7.75385 14.6463 9.29885 14.6463 11.2001C14.6463 13.0976 13.1013 14.6463 11.2001 14.6463Z" fill="currentColor"/>
</g>
<g clip-path="url(#clip1_1569_4594)">
<path d="M29.6176 22.7151H29.0051C28.8401 22.7151 28.6476 22.5651 28.5826 22.3876C28.5251 22.2226 28.4551 22.0601 28.3776 21.9001C28.2951 21.7326 28.3251 21.4901 28.4426 21.3726L28.8801 20.9351C29.1851 20.6301 29.1851 20.1326 28.8801 19.8276L28.1726 19.1201C28.0251 18.9726 27.8276 18.8901 27.6176 18.8901C27.4076 18.8901 27.2101 18.9701 27.0626 19.1201L26.6276 19.5576C26.5576 19.6276 26.4401 19.6701 26.3151 19.6701C26.2376 19.6701 26.1626 19.6551 26.1001 19.6226C25.9426 19.5451 25.7776 19.4776 25.6126 19.4176C25.4351 19.3551 25.2851 19.1601 25.2851 18.9951V18.3826C25.2851 17.9526 24.9326 17.6001 24.5001 17.6001H23.5001C23.0676 17.6001 22.7176 17.9526 22.7176 18.3826V18.9951C22.7176 19.1601 22.5676 19.3551 22.3901 19.4176C22.2251 19.4751 22.0601 19.5451 21.9026 19.6201C21.8401 19.6501 21.7651 19.6676 21.6876 19.6676C21.5626 19.6676 21.4451 19.6251 21.3751 19.5551L20.9401 19.1201C20.7926 18.9726 20.5951 18.8901 20.3851 18.8901C20.1751 18.8901 19.9776 18.9726 19.8301 19.1201L19.1201 19.8301C18.9726 19.9776 18.8901 20.1751 18.8901 20.3851C18.8901 20.5951 18.9726 20.7901 19.1201 20.9376L19.5576 21.3751C19.6751 21.4926 19.7051 21.7351 19.6251 21.9026C19.5476 22.0626 19.4801 22.2251 19.4201 22.3901C19.3576 22.5676 19.1626 22.7176 18.9976 22.7176H18.3851C17.9526 22.7151 17.6001 23.0676 17.6001 23.5001V24.5001C17.6001 24.9326 17.9526 25.2826 18.3826 25.2826H18.9951C19.1601 25.2826 19.3551 25.4326 19.4176 25.6101C19.4751 25.7751 19.5451 25.9376 19.6226 26.0976C19.7051 26.2651 19.6726 26.5076 19.5551 26.6251L19.1176 27.0626C18.8126 27.3676 18.8126 27.8651 19.1176 28.1701L19.8276 28.8801C19.9751 29.0276 20.1726 29.1101 20.3826 29.1101C20.5926 29.1101 20.7876 29.0276 20.9376 28.8801L21.3751 28.4426C21.4451 28.3726 21.5626 28.3301 21.6876 28.3301C21.7651 28.3301 21.8401 28.3451 21.9026 28.3776C22.0601 28.4551 22.2251 28.5226 22.3901 28.5801C22.5676 28.6426 22.7176 28.8376 22.7176 29.0026V29.6151C22.7176 30.0476 23.0701 30.3976 23.5001 30.3976H24.5001C24.9326 30.3976 25.2851 30.0451 25.2851 29.6151V29.0026C25.2851 28.8376 25.4351 28.6426 25.6126 28.5801C25.7776 28.5226 25.9426 28.4526 26.1001 28.3776C26.1601 28.3476 26.2376 28.3301 26.3151 28.3301C26.4401 28.3301 26.5576 28.3726 26.6276 28.4426L27.0626 28.8801C27.2101 29.0276 27.4076 29.1101 27.6176 29.1101C27.8276 29.1101 28.0226 29.0276 28.1726 28.8801L28.8801 28.1701C29.1851 27.8651 29.1851 27.3676 28.8801 27.0626L28.4451 26.6276C28.3276 26.5101 28.2976 26.2676 28.3801 26.1001C28.4576 25.9426 28.5251 25.7776 28.5826 25.6126C28.6451 25.4351 28.8401 25.2851 29.0051 25.2851H29.6176C30.0501 25.2851 30.4001 24.9326 30.4001 24.5026V23.5001C30.4001 23.0676 30.0476 22.7151 29.6176 22.7151ZM24.0001 26.2976C22.7326 26.2976 21.7026 25.2676 21.7026 24.0001C21.7026 22.7351 22.7326 21.7026 24.0001 21.7026C25.2676 21.7026 26.2976 22.7326 26.2976 24.0001C26.2976 25.2651 25.2676 26.2976 24.0001 26.2976Z" fill="currentColor"/>
</g>
<defs>
<clipPath id="clip0_1569_4594">
<rect width="19.2" height="19.2" fill="currentColor" transform="translate(1.6001 1.6001)"/>
</clipPath>
<clipPath id="clip1_1569_4594">
<rect width="12.8" height="12.8" fill="currentColor" transform="translate(17.6001 17.6001)"/>
</clipPath>
</defs>
</svg>
