<svg viewBox="0 0 32 32" fill="none" xmlns="http://www.w3.org/2000/svg">
<g clip-path="url(#clip0_1569_3136)">
<path d="M21.6601 10.3398C20.9167 9.59701 20.0342 9.00801 19.063 8.60649C18.0918 8.20498 17.051 7.99883 16.0001 7.99984V15.9998L10.3401 21.6598C13.4667 24.7865 18.5267 24.7865 21.6534 21.6598C24.7801 18.5332 24.7801 13.4665 21.6601 10.3398ZM16.0001 2.6665C8.63341 2.6665 2.66675 8.63317 2.66675 15.9998C2.66675 23.3665 8.63341 29.3332 16.0001 29.3332C23.3667 29.3332 29.3334 23.3598 29.3334 15.9998C29.3334 8.63317 23.3667 2.6665 16.0001 2.6665ZM16.0001 26.6665C10.1067 26.6665 5.33341 21.8932 5.33341 15.9998C5.33341 10.1065 10.1067 5.33317 16.0001 5.33317C21.8934 5.33317 26.6667 10.1065 26.6667 15.9998C26.6667 21.8932 21.8934 26.6665 16.0001 26.6665Z" fill="currentColor"/>
</g>
<defs>
<clipPath id="clip0_1569_3136">
<rect width="32" height="32" fill="currentColor"/>
</clipPath>
</defs>
</svg>
