<svg viewBox="0 0 16 16" fill="none" xmlns="http://www.w3.org/2000/svg">
<path fill-rule="evenodd" clip-rule="evenodd" d="M4.75 2.50006C3.50736 2.50006 2.5 3.50741 2.5 4.75006V9.1C2.5 10.0785 3.12503 10.9129 3.99993 11.2222C4.29963 11.3281 4.5 11.6114 4.5 11.9293V13.1C4.5 13.306 4.73519 13.4236 4.9 13.3L7.3 11.5C7.42982 11.4026 7.58772 11.35 7.75 11.35L11.25 11.35C12.4926 11.35 13.5 10.3426 13.5 9.1V4.75006C13.5 3.50742 12.4926 2.50006 11.25 2.50006L4.75 2.50006ZM1 4.75006C1 2.67899 2.67893 1.00006 4.75 1.00006L11.25 1.00006C13.3211 1.00006 15 2.67899 15 4.75006V9.1C15 11.1711 13.3211 12.85 11.25 12.85L8 12.85L5.8 14.5C4.64634 15.3652 3 14.5421 3 13.1V12.4173C1.81123 11.7889 1 10.5399 1 9.1V4.75006ZM4.00001 4.75C4.00001 4.33579 4.33579 4 4.75001 4H11.25C11.6642 4 12 4.33579 12 4.75C12 5.16422 11.6642 5.5 11.25 5.5H4.75001C4.33579 5.5 4.00001 5.16422 4.00001 4.75ZM4.75 7C4.33579 7 4 7.33579 4 7.75C4 8.16421 4.33579 8.5 4.75 8.5H9.25C9.66421 8.5 10 8.16421 10 7.75C10 7.33579 9.66421 7 9.25 7H4.75Z" fill="currentColor"/>
</svg>
