<svg viewBox="0 0 16 16" fill="none" xmlns="http://www.w3.org/2000/svg">
<path fill-rule="evenodd" clip-rule="evenodd" d="M12.5 7C12.5 8.42876 11.5649 10.073 10.2693 11.4864C9.64833 12.1638 9.00641 12.7194 8.48456 13.094C8.29309 13.2315 8.12985 13.3359 8 13.4103C7.87016 13.3359 7.70691 13.2315 7.51544 13.094C6.99359 12.7194 6.35167 12.1638 5.73073 11.4864C4.43513 10.073 3.5 8.42876 3.5 7C3.5 4.51472 5.51472 2.5 8 2.5C10.4853 2.5 12.5 4.51472 12.5 7ZM7.75203 13.5332C7.75213 13.533 7.75642 13.5314 7.76464 13.5289C7.75605 13.5322 7.75194 13.5334 7.75203 13.5332ZM8.23536 13.5289C8.24357 13.5314 8.24787 13.533 8.24797 13.5332C8.24807 13.5334 8.24396 13.5322 8.23536 13.5289ZM14 7C14 11 9 15 8 15C7 15 2 11 2 7C2 3.68629 4.68629 1 8 1C11.3137 1 14 3.68629 14 7ZM8.5 7C8.5 7.27614 8.27614 7.5 8 7.5C7.72386 7.5 7.5 7.27614 7.5 7C7.5 6.72386 7.72386 6.5 8 6.5C8.27614 6.5 8.5 6.72386 8.5 7ZM10 7C10 8.10457 9.10457 9 8 9C6.89543 9 6 8.10457 6 7C6 5.89543 6.89543 5 8 5C9.10457 5 10 5.89543 10 7Z" fill="currentColor"/>
</svg>
