<svg viewBox="0 0 156 42" fill="none" xmlns="http://www.w3.org/2000/svg">
<path d="M9.71244 25.7929H4.05093L4.08599 21.0098H9.71244C10.881 21.0098 11.8684 20.7264 12.6746 20.1595C13.4926 19.5927 14.1119 18.7482 14.5326 17.6263C14.965 16.4925 15.1811 15.099 15.1811 13.4456V12.3296C15.1811 11.0895 15.0584 10.003 14.813 9.07002C14.5793 8.12522 14.2288 7.33986 13.7614 6.71394C13.294 6.0762 12.7097 5.5979 12.0086 5.27903C11.3192 4.96017 10.5246 4.80073 9.6248 4.80073H3.94577V0H9.6248C11.3542 0 12.9376 0.301153 14.3749 0.903459C15.8238 1.49395 17.0741 2.34427 18.1258 3.4544C19.1892 4.55272 20.0071 5.85772 20.5797 7.36939C21.164 8.86925 21.4561 10.5344 21.4561 12.365V13.4456C21.4561 15.2643 21.164 16.9295 20.5797 18.4412C20.0071 19.9529 19.195 21.2579 18.1433 22.3562C17.0917 23.4545 15.8472 24.3048 14.4099 24.9071C12.9843 25.4976 11.4185 25.7929 9.71244 25.7929ZM7.57404 0V25.7929H1.42175V0H7.57404Z" fill="currentColor"/>
<path d="M24.6637 0H34.7072C36.6703 0 38.3763 0.295248 39.8253 0.885744C41.2743 1.47624 42.3902 2.35017 43.1731 3.50755C43.9677 4.66492 44.365 6.09392 44.365 7.79455C44.365 9.27079 44.1372 10.5049 43.6814 11.497C43.2257 12.489 42.5889 13.3098 41.7709 13.9593C40.9646 14.5971 40.024 15.1226 38.9489 15.5359L36.9332 16.6874H28.5023L28.4673 11.8867H34.7072C35.4901 11.8867 36.1386 11.745 36.6528 11.4615C37.1669 11.1781 37.5525 10.7765 37.8096 10.2569C38.0784 9.72547 38.2128 9.09364 38.2128 8.36142C38.2128 7.6174 38.0784 6.97966 37.8096 6.44822C37.5409 5.91677 37.1436 5.50933 36.6177 5.22589C36.1036 4.94245 35.4667 4.80073 34.7072 4.80073H30.816V25.7929H24.6637V0ZM38.6334 25.7929L32.9894 14.3845L39.5098 14.349L45.2239 25.5271V25.7929H38.6334Z" fill="currentColor"/>
<path d="M54.6188 0V25.7929H48.4841V0H54.6188Z" fill="currentColor"/>
<path d="M80.2621 0V25.7929H74.1274L65.1005 9.74318V25.7929H58.9482V0H65.1005L74.1274 16.0497V0H80.2621Z" fill="currentColor"/>
<path d="M90.0427 23.4545L95.1258 0H98.1581L99.8057 2.00178L94.3896 25.7929H91.0418L90.0427 23.4545ZM88.693 0L92.9874 23.6316L91.8831 25.7929H88.0094L82.5933 0H88.693ZM102.593 23.5076L106.852 0H112.934L107.518 25.7929H103.662L102.593 23.5076ZM100.349 0L105.555 23.5962L104.503 25.7929H101.155L95.6165 1.96635L97.3343 0H100.349Z" fill="currentColor"/>
<path d="M132.916 21.0098V25.7929H119.314V21.0098H132.916ZM121.505 0V25.7929H115.353V0H121.505ZM131.163 10.2392V14.8628H119.314V10.2392H131.163ZM132.968 0V4.80073H119.314V0H132.968Z" fill="currentColor"/>
<path d="M135.44 0H145.483C147.446 0 149.152 0.295248 150.601 0.885744C152.05 1.47624 153.166 2.35017 153.949 3.50755C154.744 4.66492 155.141 6.09392 155.141 7.79455C155.141 9.27079 154.913 10.5049 154.458 11.497C154.002 12.489 153.365 13.3098 152.547 13.9593C151.741 14.5971 150.8 15.1226 149.725 15.5359L147.709 16.6874H139.278L139.243 11.8867H145.483C146.266 11.8867 146.915 11.745 147.429 11.4615C147.943 11.1781 148.329 10.7765 148.586 10.2569C148.855 9.72547 148.989 9.09364 148.989 8.36142C148.989 7.6174 148.855 6.97966 148.586 6.44822C148.317 5.91677 147.92 5.50933 147.394 5.22589C146.88 4.94245 146.243 4.80073 145.483 4.80073H141.592V25.7929H135.44V0ZM149.41 25.7929L143.766 14.3845L150.286 14.349L156 25.5271V25.7929H149.41Z" fill="currentColor"/>
<path d="M0.533626 36.1854H1.52298L2.97974 40.3937L4.4365 36.1854H5.42585L3.37704 41.9172H2.58244L0.533626 36.1854ZM0 36.1854H0.985456L1.16463 40.2874V41.9172H0V36.1854ZM4.97402 36.1854H5.96337V41.9172H4.79485V40.2874L4.97402 36.1854Z" fill="currentColor"/>
<path d="M9.36378 37.1657L7.82133 41.9172H6.57879L8.68603 36.1854H9.47674L9.36378 37.1657ZM10.6453 41.9172L9.09891 37.1657L8.97427 36.1854H9.77276L11.8917 41.9172H10.6453ZM10.5751 39.7835V40.7086H7.57983V39.7835H10.5751Z" fill="currentColor"/>
<path d="M16.1412 36.1854V37.1105H13.586V41.9172H12.4214V36.1854H16.1412Z" fill="currentColor"/>
<path d="M18.3848 37.1657L16.8423 41.9172H15.5998L17.707 36.1854H18.4977L18.3848 37.1657ZM19.6663 41.9172L18.1199 37.1657L17.9953 36.1854H18.7938L20.9127 41.9172H19.6663ZM19.5962 39.7835V40.7086H16.6008V39.7835H19.5962Z" fill="currentColor"/>
<path d="M23.5575 39.1694H22.6772V38.5435H23.3783C23.5834 38.5435 23.7496 38.512 23.8769 38.449C24.0041 38.3834 24.0976 38.2915 24.1573 38.1734C24.217 38.0553 24.2469 37.9162 24.2469 37.7562C24.2469 37.6249 24.2131 37.5042 24.1456 37.394C24.0807 37.2838 23.9794 37.1958 23.8418 37.1302C23.7042 37.062 23.5289 37.0279 23.316 37.0279C23.155 37.0279 23.0083 37.0567 22.8758 37.1145C22.7434 37.1722 22.6382 37.2536 22.5603 37.3586C22.4824 37.4609 22.4435 37.5856 22.4435 37.7325H21.2788C21.2788 37.4806 21.3321 37.2549 21.4385 37.0554C21.5476 36.8534 21.6956 36.6828 21.8826 36.5437C22.0721 36.402 22.2903 36.2944 22.5369 36.2209C22.7836 36.1474 23.0433 36.1106 23.316 36.1106C23.6354 36.1106 23.9236 36.1461 24.1807 36.2169C24.4377 36.2852 24.6585 36.3875 24.8428 36.524C25.0272 36.6605 25.1687 36.8297 25.2674 37.0318C25.3661 37.2339 25.4154 37.4688 25.4154 37.7365C25.4154 37.9333 25.3713 38.1183 25.283 38.2915C25.1947 38.4648 25.0688 38.617 24.9052 38.7482C24.7416 38.8794 24.5455 38.9831 24.317 39.0592C24.0885 39.1327 23.8353 39.1694 23.5575 39.1694ZM22.6772 38.8269H23.5575C23.8665 38.8269 24.1404 38.8597 24.3793 38.9253C24.6208 38.9909 24.8247 39.0867 24.9908 39.2127C25.1596 39.3387 25.2869 39.4948 25.3726 39.6812C25.4609 39.8649 25.505 40.0761 25.505 40.315C25.505 40.5827 25.4505 40.8202 25.3414 41.0275C25.2349 41.2348 25.083 41.4107 24.8857 41.555C24.6909 41.6994 24.4598 41.8083 24.1924 41.8818C23.9275 41.9552 23.6354 41.992 23.316 41.992C23.0615 41.992 22.8083 41.9605 22.5564 41.8975C22.3045 41.8319 22.076 41.7322 21.8709 41.5983C21.6657 41.4645 21.5022 41.2926 21.3801 41.0826C21.2581 40.8727 21.197 40.6207 21.197 40.3268H22.3695C22.3695 40.4659 22.4097 40.5932 22.4902 40.7086C22.5707 40.8215 22.6824 40.912 22.8252 40.9803C22.968 41.0459 23.1316 41.0787 23.316 41.0787C23.5315 41.0787 23.7146 41.0446 23.8652 40.9763C24.0184 40.9081 24.1339 40.8149 24.2118 40.6968C24.2923 40.5761 24.3326 40.4436 24.3326 40.2992C24.3326 40.1444 24.3118 40.0132 24.2703 39.9056C24.2287 39.798 24.1677 39.71 24.0872 39.6418C24.0067 39.5709 23.9067 39.5198 23.7873 39.4883C23.6704 39.4568 23.5341 39.441 23.3783 39.441H22.6772V38.8269Z" fill="currentColor"/>
<path d="M27.4954 40.0591L29.774 36.1854H30.9425V41.9172H29.774V38.0435L27.4954 41.9172H26.3269V36.1854H27.4954V40.0591Z" fill="currentColor"/>
<path d="M35.7374 38.5199V39.441H32.7771V38.5199H35.7374ZM33.1238 36.1854V41.9172H31.9553V36.1854H33.1238ZM36.5709 36.1854V41.9172H35.4063V36.1854H36.5709Z" fill="currentColor"/>
<path d="M40.6997 40.0591L42.9783 36.1854H44.1469V41.9172H42.9783V38.0435L40.6997 41.9172H39.5312V36.1854H40.6997V40.0591Z" fill="currentColor"/>
<path d="M48.9417 38.5199V39.441H45.9814V38.5199H48.9417ZM46.3281 36.1854V41.9172H45.1596V36.1854H46.3281ZM49.7753 36.1854V41.9172H48.6106V36.1854H49.7753Z" fill="currentColor"/>
<path d="M54.0793 40.0158H55.244C55.2206 40.4016 55.1154 40.7441 54.9285 41.0432C54.7441 41.3424 54.4857 41.576 54.1533 41.744C53.8235 41.9119 53.4262 41.9959 52.9614 41.9959C52.5979 41.9959 52.272 41.9329 51.9838 41.807C51.6955 41.6784 51.4488 41.4946 51.2437 41.2558C51.0412 41.017 50.8867 40.7283 50.7802 40.3898C50.6737 40.0512 50.6205 39.672 50.6205 39.2521V38.8545C50.6205 38.4346 50.675 38.0553 50.7841 37.7168C50.8957 37.3756 51.0541 37.0856 51.2593 36.8468C51.467 36.608 51.715 36.4243 52.0032 36.2957C52.2915 36.1671 52.6135 36.1028 52.9692 36.1028C53.4418 36.1028 53.8404 36.1894 54.165 36.3626C54.4922 36.5358 54.7454 36.7746 54.9246 37.0791C55.1063 37.3835 55.2154 37.7299 55.2517 38.1183H54.0832C54.0702 37.8874 54.0248 37.6919 53.9469 37.5318C53.869 37.3691 53.7508 37.247 53.5924 37.1657C53.4366 37.0817 53.2289 37.0397 52.9692 37.0397C52.7745 37.0397 52.6044 37.0764 52.459 37.1499C52.3136 37.2234 52.1915 37.3349 52.0928 37.4845C51.9942 37.6341 51.9201 37.8231 51.8708 38.0514C51.8241 38.2771 51.8007 38.5422 51.8007 38.8466V39.2521C51.8007 39.5486 51.8228 39.8098 51.8669 40.0355C51.9111 40.2585 51.9786 40.4475 52.0695 40.6023C52.1629 40.7546 52.2824 40.87 52.4278 40.9488C52.5758 41.0249 52.7537 41.0629 52.9614 41.0629C53.2055 41.0629 53.4068 41.0236 53.5652 40.9448C53.7236 40.8661 53.8443 40.7493 53.9274 40.5945C54.0131 40.4396 54.0637 40.2467 54.0793 40.0158Z" fill="currentColor"/>
<path d="M58.4301 36.1854V41.9172H57.2655V36.1854H58.4301ZM60.1751 36.1854V37.1105H55.5478V36.1854H60.1751Z" fill="currentColor"/>
<path d="M63.0497 39.8741H61.6046V38.9529H63.0497C63.273 38.9529 63.4548 38.9162 63.595 38.8427C63.7352 38.7666 63.8378 38.6616 63.9027 38.5277C63.9676 38.3939 64.0001 38.243 64.0001 38.075C64.0001 37.9044 63.9676 37.7457 63.9027 37.5987C63.8378 37.4517 63.7352 37.3336 63.595 37.2444C63.4548 37.1552 63.273 37.1105 63.0497 37.1105H62.0097V41.9172H60.8412V36.1854H63.0497C63.4937 36.1854 63.8742 36.2668 64.191 36.4295C64.5104 36.5896 64.7544 36.8114 64.9232 37.0948C65.092 37.3782 65.1764 37.7024 65.1764 38.0671C65.1764 38.4372 65.092 38.7574 64.9232 39.0277C64.7544 39.298 64.5104 39.5066 64.191 39.6536C63.8742 39.8006 63.4937 39.8741 63.0497 39.8741Z" fill="currentColor"/>
<path d="M67.7627 39.8386L69.1572 36.1854H70.4153L68.4716 40.8071C68.4041 40.9645 68.3262 41.1154 68.2379 41.2598C68.1523 41.4015 68.0497 41.5288 67.9302 41.6416C67.8108 41.7518 67.668 41.8398 67.5018 41.9054C67.3356 41.9684 67.1369 41.9999 66.9058 41.9999C66.8487 41.9999 66.7786 41.9985 66.6955 41.9959C66.6124 41.9933 66.5462 41.9894 66.4968 41.9841L66.4891 41.0629C66.5202 41.0708 66.5695 41.0761 66.6371 41.0787C66.7046 41.0787 66.7539 41.0787 66.7851 41.0787C66.9383 41.0787 67.059 41.0564 67.1473 41.0118C67.2356 40.9671 67.3057 40.9042 67.3577 40.8228C67.4122 40.7388 67.4602 40.6404 67.5018 40.5275L67.7627 39.8386ZM66.8396 36.1854L68.1328 39.0238L68.495 40.3268L67.6264 40.3425L65.5854 36.1854H66.8396Z" fill="currentColor"/>
<path d="M71.5566 36.1854H72.5459L74.0027 40.3937L75.4594 36.1854H76.4488L74.4 41.9172H73.6054L71.5566 36.1854ZM71.0229 36.1854H72.0084L72.1876 40.2874V41.9172H71.0229V36.1854ZM75.9969 36.1854H76.9863V41.9172H75.8178V40.2874L75.9969 36.1854Z" fill="currentColor"/>
<path d="M81.8162 40.996V41.9172H78.7975V40.996H81.8162ZM79.1792 36.1854V41.9172H78.0107V36.1854H79.1792ZM81.4228 38.5199V39.4174H78.7975V38.5199H81.4228ZM81.8123 36.1854V37.1105H78.7975V36.1854H81.8123Z" fill="currentColor"/>
<path d="M86.28 38.5199V39.441H83.3197V38.5199H86.28ZM83.6664 36.1854V41.9172H82.4978V36.1854H83.6664ZM87.1135 36.1854V41.9172H85.9489V36.1854H87.1135Z" fill="currentColor"/>
<path d="M90.549 36.1854V41.9172H89.3843V36.1854H90.549ZM92.294 36.1854V37.1105H87.6666V36.1854H92.294Z" fill="currentColor"/>
<path d="M94.8453 37.1657L93.3028 41.9172H92.0603L94.1675 36.1854H94.9582L94.8453 37.1657ZM96.1267 41.9172L94.5804 37.1657L94.4557 36.1854H95.2542L97.3732 41.9172H96.1267ZM96.0566 39.7835V40.7086H93.0613V39.7835H96.0566Z" fill="currentColor"/>
<path d="M101.011 40.0591L103.29 36.1854H104.458V41.9172H103.29V38.0435L101.011 41.9172H99.8426V36.1854H101.011V40.0591Z" fill="currentColor"/>
<path d="M109.576 39.1694H108.696V38.5435H109.397C109.602 38.5435 109.769 38.512 109.896 38.449C110.023 38.3834 110.117 38.2915 110.176 38.1734C110.236 38.0553 110.266 37.9162 110.266 37.7562C110.266 37.6249 110.232 37.5042 110.165 37.394C110.1 37.2838 109.998 37.1958 109.861 37.1302C109.723 37.062 109.548 37.0279 109.335 37.0279C109.174 37.0279 109.027 37.0567 108.895 37.1145C108.762 37.1722 108.657 37.2536 108.579 37.3586C108.501 37.4609 108.462 37.5856 108.462 37.7325H107.298C107.298 37.4806 107.351 37.2549 107.458 37.0554C107.567 36.8534 107.715 36.6828 107.902 36.5437C108.091 36.402 108.309 36.2944 108.556 36.2209C108.803 36.1474 109.062 36.1106 109.335 36.1106C109.654 36.1106 109.943 36.1461 110.2 36.2169C110.457 36.2852 110.677 36.3875 110.862 36.524C111.046 36.6605 111.188 36.8297 111.286 37.0318C111.385 37.2339 111.434 37.4688 111.434 37.7365C111.434 37.9333 111.39 38.1183 111.302 38.2915C111.214 38.4648 111.088 38.617 110.924 38.7482C110.761 38.8794 110.565 38.9831 110.336 39.0592C110.107 39.1327 109.854 39.1694 109.576 39.1694ZM108.696 38.8269H109.576C109.885 38.8269 110.159 38.8597 110.398 38.9253C110.64 38.9909 110.844 39.0867 111.01 39.2127C111.179 39.3387 111.306 39.4948 111.392 39.6812C111.48 39.8649 111.524 40.0761 111.524 40.315C111.524 40.5827 111.469 40.8202 111.36 41.0275C111.254 41.2348 111.102 41.4107 110.905 41.555C110.71 41.6994 110.479 41.8083 110.211 41.8818C109.946 41.9552 109.654 41.992 109.335 41.992C109.08 41.992 108.827 41.9605 108.575 41.8975C108.324 41.8319 108.095 41.7322 107.89 41.5983C107.685 41.4645 107.521 41.2926 107.399 41.0826C107.277 40.8727 107.216 40.6207 107.216 40.3268H108.388C108.388 40.4659 108.429 40.5932 108.509 40.7086C108.59 40.8215 108.701 40.912 108.844 40.9803C108.987 41.0459 109.151 41.0787 109.335 41.0787C109.55 41.0787 109.734 41.0446 109.884 40.9763C110.037 40.9081 110.153 40.8149 110.231 40.6968C110.311 40.5761 110.352 40.4436 110.352 40.2992C110.352 40.1444 110.331 40.0132 110.289 39.9056C110.248 39.798 110.187 39.71 110.106 39.6418C110.026 39.5709 109.926 39.5198 109.806 39.4883C109.689 39.4568 109.553 39.441 109.397 39.441H108.696V38.8269Z" fill="currentColor"/>
<path d="M114.695 37.1657L113.152 41.9172H111.91L114.017 36.1854H114.808L114.695 37.1657ZM115.976 41.9172L114.43 37.1657L114.305 36.1854H115.104L117.223 41.9172H115.976ZM115.906 39.7835V40.7086H112.911V39.7835H115.906Z" fill="currentColor"/>
<path d="M122.368 36.1854V41.9172H121.199V37.1105H118.921V41.9172H117.752V36.1854H122.368Z" fill="currentColor"/>
<path d="M123.423 36.1854H124.596V37.9451C124.596 38.1971 124.634 38.3939 124.709 38.5356C124.787 38.6773 124.904 38.7771 125.059 38.8348C125.218 38.8899 125.414 38.9175 125.648 38.9175C125.736 38.9175 125.84 38.9135 125.959 38.9057C126.081 38.8978 126.206 38.886 126.333 38.8702C126.46 38.8519 126.582 38.8322 126.699 38.8112C126.816 38.7876 126.913 38.7613 126.991 38.7324V39.6536C126.913 39.6799 126.816 39.7048 126.699 39.7284C126.582 39.752 126.46 39.773 126.333 39.7914C126.206 39.8071 126.081 39.819 125.959 39.8268C125.84 39.8347 125.736 39.8386 125.648 39.8386C125.196 39.8386 124.804 39.773 124.471 39.6418C124.139 39.5106 123.88 39.3059 123.696 39.0277C123.514 38.7469 123.423 38.386 123.423 37.9451V36.1854ZM126.746 36.1854H127.915V41.9172H126.746V36.1854Z" fill="currentColor"/>
<path d="M131.303 37.1657L129.761 41.9172H128.518L130.625 36.1854H131.416L131.303 37.1657ZM132.585 41.9172L131.038 37.1657L130.914 36.1854H131.712L133.831 41.9172H132.585ZM132.515 39.7835V40.7086H129.519V39.7835H132.515Z" fill="currentColor"/>
<path d="M137.574 40.0158H138.739C138.716 40.4016 138.61 40.7441 138.423 41.0432C138.239 41.3424 137.981 41.576 137.648 41.744C137.319 41.9119 136.921 41.9959 136.456 41.9959C136.093 41.9959 135.767 41.9329 135.479 41.807C135.191 41.6784 134.944 41.4946 134.739 41.2558C134.536 41.017 134.382 40.7283 134.275 40.3898C134.169 40.0512 134.115 39.672 134.115 39.2521V38.8545C134.115 38.4346 134.17 38.0553 134.279 37.7168C134.391 37.3756 134.549 37.0856 134.754 36.8468C134.962 36.608 135.21 36.4243 135.498 36.2957C135.786 36.1671 136.108 36.1028 136.464 36.1028C136.937 36.1028 137.335 36.1894 137.66 36.3626C137.987 36.5358 138.24 36.7746 138.42 37.0791C138.601 37.3835 138.71 37.7299 138.747 38.1183H137.578C137.565 37.8874 137.52 37.6919 137.442 37.5318C137.364 37.3691 137.246 37.247 137.087 37.1657C136.932 37.0817 136.724 37.0397 136.464 37.0397C136.269 37.0397 136.099 37.0764 135.954 37.1499C135.809 37.2234 135.686 37.3349 135.588 37.4845C135.489 37.6341 135.415 37.8231 135.366 38.0514C135.319 38.2771 135.296 38.5422 135.296 38.8466V39.2521C135.296 39.5486 135.318 39.8098 135.362 40.0355C135.406 40.2585 135.474 40.4475 135.564 40.6023C135.658 40.7546 135.777 40.87 135.923 40.9488C136.071 41.0249 136.249 41.0629 136.456 41.0629C136.701 41.0629 136.902 41.0236 137.06 40.9448C137.219 40.8661 137.339 40.7493 137.422 40.5945C137.508 40.4396 137.559 40.2467 137.574 40.0158Z" fill="currentColor"/>
<path d="M141.925 36.1854V41.9172H140.76V36.1854H141.925ZM143.67 36.1854V37.1105H139.043V36.1854H143.67Z" fill="currentColor"/>
<path d="M148.142 40.996V41.9172H145.123V40.996H148.142ZM145.505 36.1854V41.9172H144.336V36.1854H145.505ZM147.748 38.5199V39.4174H145.123V38.5199H147.748ZM148.138 36.1854V37.1105H145.123V36.1854H148.138Z" fill="currentColor"/>
<path d="M149.949 40.0591L152.228 36.1854H153.396V41.9172H152.228V38.0435L149.949 41.9172H148.78V36.1854H149.949V40.0591ZM151.655 34.6816H152.454C152.454 34.9073 152.398 35.1081 152.286 35.2839C152.177 35.4572 152.021 35.5936 151.819 35.6934C151.616 35.7905 151.377 35.839 151.102 35.839C150.684 35.839 150.353 35.7314 150.109 35.5162C149.867 35.301 149.746 35.0228 149.746 34.6816H150.541C150.541 34.8181 150.583 34.9401 150.666 35.0477C150.751 35.1553 150.897 35.2092 151.102 35.2092C151.304 35.2092 151.447 35.1553 151.53 35.0477C151.613 34.9401 151.655 34.8181 151.655 34.6816Z" fill="currentColor"/>
</svg>
