<svg viewBox="0 0 16 16" fill="none" xmlns="http://www.w3.org/2000/svg">
<path fill-rule="evenodd" clip-rule="evenodd" d="M7.78897 8.58832C9.36782 8.58832 10.5626 7.38128 10.5626 5.99416C10.5626 4.60703 9.36782 3.4 7.78897 3.4C6.21011 3.4 5.01535 4.60703 5.01535 5.99416C5.01535 7.38128 6.21011 8.58832 7.78897 8.58832ZM11.9819 5.99416C11.9819 7.40298 11.2162 8.64145 10.0596 9.35252C12.0988 10.0759 13.633 11.8428 14 14H12.5542C12.0912 11.9405 10.2282 10.4 8 10.4C5.77177 10.4 3.90876 11.9405 3.44577 14H2C2.35149 11.9339 3.77373 10.2258 5.68477 9.4497C4.43575 8.75806 3.59601 7.46952 3.59601 5.99416C3.59601 3.78825 5.47326 2 7.78897 2C10.1047 2 11.9819 3.78825 11.9819 5.99416Z" fill="currentColor"/>
</svg>
