<svg viewBox="0 0 48 50" fill="none" xmlns="http://www.w3.org/2000/svg">
<path d="M10.1686 15.9229C9.51841 15.9229 8.89488 16.1811 8.43515 16.6409C7.97542 17.1006 7.71714 17.7241 7.71714 18.3743V24.88C6.17429 25.2743 5 26.6114 5 28.2829V38.1229C5 40.0943 6.60286 41.6971 8.57429 41.6971H8.80571V46.2486C8.80571 47.7657 10.04 49 11.5571 49H16.8029C18.02 49 19.0143 48.1943 19.3829 47.1057H38.4371C40.4086 47.1057 42.0114 45.5029 42.0114 43.5314V33.6914C42.0114 31.72 40.4086 30.1171 38.4371 30.1171H38.3171V16.1457C39.2164 15.5543 39.9549 14.7491 40.4665 13.8022C40.9781 12.8553 41.2468 11.7963 41.2486 10.72C41.2486 9.06571 40.6229 7.48857 39.4914 6.28857C38.8743 5.62857 38.1029 5.42286 37.4343 5.72286C36.7143 6.04857 36.3286 6.88 36.44 7.88286L36.6114 9.57143C36.6629 10.0857 36.4314 10.4714 36.2171 10.7029C35.48 11.5171 33.98 11.5171 33.2514 10.7029C33.0457 10.4714 32.8057 10.0857 32.8571 9.57143L33.0286 7.88286C33.14 6.78571 32.3 5.98857 31.7857 5.69714C31.6858 5.63849 31.5747 5.60134 31.4596 5.58806C31.3444 5.57478 31.2278 5.58566 31.1171 5.62C30.9971 5.65429 30.3629 5.85143 29.9686 6.28857C28.8371 7.48857 28.22 9.06571 28.2114 10.7286C28.2114 12.9143 29.3257 14.9457 31.1429 16.1457V24.1343C30.62 23.8514 30.0457 23.6543 29.3857 23.6543C27.7229 23.6543 26.7114 24.7943 26.0171 25.9257H23.8143L21.5771 21.6229C20.8743 20.2771 19.82 18.2457 17.6 18.2457C16.94 18.2457 16.3571 18.4429 15.8429 18.7257V18.3829C15.8429 17.0286 14.7371 15.9314 13.3914 15.9314H12.6371V6.03143H12.6971C13.1686 6.03143 13.5543 5.64571 13.5543 5.17429C13.5543 4.70286 13.1686 4.31714 12.6971 4.31714H12.6371V1.85714C12.6371 1.38571 12.2514 1 11.78 1C11.3086 1 10.9229 1.38571 10.9229 1.85714V4.31714H10.8629C10.3914 4.31714 10.0057 4.70286 10.0057 5.17429C10.0057 5.64571 10.3914 6.03143 10.8629 6.03143H10.9229V15.9229H10.1686ZM16.7943 47.2857H11.5486C10.9743 47.2857 10.5114 46.8229 10.5114 46.2486V32.1829C10.5114 31.6 10.9657 31.1457 11.5486 31.1457H16.7943C17.3771 31.1457 17.8314 31.6 17.8314 32.1829V46.2486C17.8314 46.8229 17.3686 47.2857 16.7943 47.2857ZM29.9257 10.72C29.9257 9.50286 30.3886 8.34571 31.22 7.45429L31.1429 9.4C31.0486 10.2914 31.3486 11.1657 31.9657 11.8514C32.6514 12.6143 33.68 13.0686 34.7257 13.0686C35.7714 13.0686 36.7914 12.6143 37.4771 11.8514C38.1029 11.1571 38.3943 10.2914 38.3 9.39143C38.1114 7.55714 38.0943 7.55714 38.1371 7.36857C38.8486 7.97714 39.5171 9.32286 39.5171 10.7114C39.5171 12.46 38.5571 14.0629 37.0314 14.9029C36.7571 15.0571 36.5857 15.34 36.5857 15.6571V30.1171H35.5743V17.4657C35.5743 16.9943 35.1886 16.6086 34.7171 16.6086C34.2457 16.6086 33.86 16.9943 33.86 17.4657V30.1171H32.8486V15.6571C32.8486 15.3486 32.6771 15.0571 32.4029 14.9029C31.6527 14.4912 31.0266 13.8861 30.5894 13.1505C30.1523 12.4149 29.9202 11.5757 29.9171 10.72H29.9257ZM29.3857 25.36C29.9514 25.36 30.4143 25.5314 30.7229 25.8657C31.0486 26.2171 31.1943 26.7314 31.1514 27.4171V30.9743C31.1514 31.4457 31.5371 31.8314 32.0086 31.8314H38.4286C39.4571 31.8314 40.2886 32.6629 40.2886 33.6914V43.5314C40.2886 44.56 39.4571 45.3914 38.4286 45.3914H19.5457V33.04H23.6943C24.0114 33.04 24.3029 32.86 24.4571 32.5771L26.9343 27.8114C27.7571 26.2257 28.3914 25.36 29.3857 25.36ZM16.2714 20.4571C16.58 20.1314 17.0429 19.9514 17.6086 19.9514C18.5943 19.9514 19.2371 20.8171 20.06 22.4029L22.5371 27.1686C22.6829 27.4514 22.9743 27.6314 23.3 27.6314H25.1L23.18 31.3257H19.3743C19.0057 30.2371 18.0114 29.4314 16.7943 29.4314H11.5486C10.0314 29.4314 8.79714 30.6657 8.79714 32.1829V39.9829H8.56571C7.53714 39.9829 6.70571 39.1514 6.70571 38.1229V28.2829C6.70571 27.2371 7.52 26.4229 8.56571 26.4229H14.9857C15.4571 26.4229 15.8429 26.0371 15.8429 25.5657V21.9143C15.8086 21.3057 15.9457 20.7914 16.2714 20.4486V20.4571ZM14.1286 18.3743V24.7086H9.42286V18.3743C9.42286 17.9714 9.75714 17.6371 10.16 17.6371H13.3829C13.7943 17.6371 14.12 17.9714 14.12 18.3743H14.1286Z" fill="currentColor" stroke="currentColor" stroke-width="0.5"/>
</svg>
