<svg viewBox="0 0 48 50" fill="none" xmlns="http://www.w3.org/2000/svg">
<path d="M37.8674 34.165V18.49C37.8718 16.1799 37.2967 13.9055 36.1949 11.875C35.8763 8.90026 34.4759 6.1462 32.2599 4.1362C30.0439 2.1262 27.1667 1.00034 24.1751 0.972572C21.1834 0.944803 18.2858 2.01706 16.0329 3.98558C13.7799 5.9541 12.3287 8.68169 11.9549 11.65C10.7598 13.7315 10.1314 16.0899 10.1324 18.49V34.165C8.70215 34.9556 7.52396 36.1337 6.73324 37.5639C5.94252 38.9941 5.57136 40.6184 5.66242 42.25V44.425C5.66242 45.7225 5.66242 47.0125 5.66242 48.31C5.66242 48.5089 5.74144 48.6997 5.88209 48.8404C6.02274 48.981 6.21351 49.06 6.41242 49.06H41.5724C41.7713 49.06 41.9621 48.981 42.1027 48.8404C42.2434 48.6997 42.3224 48.5089 42.3224 48.31C42.3224 47.0125 42.3224 45.7225 42.3224 44.425V42.25C42.4149 40.6199 42.046 38.9967 41.258 37.5666C40.47 36.1366 39.2949 34.9576 37.8674 34.165ZM35.2499 19.33L35.9999 15.76C35.9999 15.685 35.9999 15.6025 36.0374 15.5275C36.2772 16.4969 36.4005 17.4914 36.4049 18.49V33.415C34.6312 32.7202 32.7882 32.2174 30.9074 31.915L29.6849 31.66V29.9875C30.6848 28.8578 31.4678 27.5536 31.9949 26.14C32.2926 25.968 32.576 25.7724 32.8424 25.555C33.1187 25.8108 33.4786 25.9574 33.8549 25.9675C35.1074 25.9675 36.0449 24.3625 36.0449 22.2175C36.0859 21.1959 35.8081 20.1867 35.2499 19.33ZM24.5999 23.4025C24.4393 23.3441 24.2676 23.3225 24.0976 23.3394C23.9275 23.3563 23.7634 23.4112 23.6174 23.5C23.4405 23.6081 23.29 23.7545 23.1771 23.9285C23.0642 24.1024 22.9917 24.2994 22.9649 24.505L22.7699 25.75C22.7395 25.9469 22.7504 26.148 22.8021 26.3404C22.8537 26.5328 22.945 26.7124 23.0699 26.8675C23.1747 26.994 23.3051 27.0967 23.4524 27.1691C23.5998 27.2415 23.7608 27.2819 23.9249 27.2875L26.1224 27.3325C26.3325 27.3281 26.5379 27.2699 26.719 27.1636C26.9002 27.0572 27.0511 26.9063 27.1574 26.725C27.7035 26.834 28.2582 26.8943 28.8149 26.905C29.0298 26.9163 29.2451 26.9163 29.4599 26.905C29.6774 26.905 29.8799 26.8525 30.0824 26.8225C29.6544 27.6995 29.0955 28.5062 28.4249 29.215C27.8575 29.8292 27.1691 30.3194 26.4031 30.6546C25.637 30.9898 24.8099 31.1629 23.9737 31.1629C23.1375 31.1629 22.3103 30.9898 21.5443 30.6546C20.7782 30.3194 20.0898 29.8292 19.5224 29.215C17.9324 27.55 16.9199 25 16.4999 22.285C16.495 21.779 16.4295 21.2755 16.3049 20.785C16.2449 20.11 16.2074 19.4275 16.2074 18.7525V18.25L20.0849 14.785C21.6824 16.1875 26.8349 20.215 31.8374 19.585C31.7738 21.4495 31.4455 23.2955 30.8624 25.0675C30.3855 25.2699 29.8789 25.394 29.3624 25.435C28.7327 25.4848 28.0992 25.447 27.4799 25.3225C27.4796 25.0763 27.4088 24.8352 27.2759 24.6279C27.143 24.4206 26.9536 24.2556 26.7299 24.1525L24.5999 23.4025ZM26.0324 25.48L25.9724 25.9075L24.2324 25.8625L24.3824 24.8725L26.0324 25.48ZM21.2774 40.2925L19.4999 38.7325C19.3984 38.6451 19.2752 38.5864 19.1433 38.5627C19.0114 38.5389 18.8756 38.551 18.7499 38.5975L14.2499 40.2025C15.1983 37.643 16.7406 35.345 18.7499 33.4975L21.2774 40.2925ZM19.7774 32.0425V31.27C21.0187 32.1482 22.5019 32.6198 24.0224 32.6198C25.543 32.6198 27.0261 32.1482 28.2674 31.27V32.0875L23.9999 43.4275L19.7774 32.0425ZM29.2499 33.4975C31.2606 35.3439 32.8031 37.6422 33.7499 40.2025L29.2499 38.5975C29.1242 38.551 28.9884 38.5389 28.8565 38.5627C28.7246 38.5864 28.6015 38.6451 28.4999 38.7325L26.7524 40.2325L29.2499 33.4975ZM33.1124 22.2475C33.1124 20.71 33.7049 19.9975 33.8624 19.9975C34.0199 19.9975 34.6124 20.7475 34.6124 22.2475C34.6124 23.7475 34.0274 24.4975 33.8624 24.4975C33.6974 24.4975 33.7124 24.4075 33.5924 24.2275C33.5679 24.1551 33.5325 24.0868 33.4874 24.025C33.2314 23.4657 33.1082 22.8548 33.1274 22.24L33.1124 22.2475ZM24.0674 2.45503C26.126 2.45349 28.1412 3.0465 29.8708 4.16277C31.6004 5.27905 32.9709 6.87109 33.8174 8.74753L33.7724 8.70253C31.2108 6.13719 27.7452 4.67895 24.12 4.64108C20.4949 4.60322 16.9996 5.98876 14.3849 8.50003C15.2696 6.68588 16.6467 5.15707 18.3588 4.08817C20.0709 3.01926 22.049 2.45335 24.0674 2.45503ZM13.3649 12.1225C14.3343 10.5043 15.66 9.12846 17.2412 8.09968C18.8224 7.0709 20.6173 6.41626 22.4896 6.18558C24.3618 5.9549 26.262 6.15424 28.0456 6.76843C29.8292 7.38263 31.4492 8.39552 32.7824 9.73003C33.563 10.5081 34.2341 11.3886 34.7774 12.3475C34.8695 13.3864 34.8037 14.4333 34.5824 15.4525L33.9299 18.5275H33.8624C33.6514 18.5329 33.4441 18.5841 33.2549 18.6775C33.2385 18.4795 33.144 18.296 32.9924 18.1675C32.9049 18.1007 32.8038 18.054 32.6962 18.0307C32.5886 18.0073 32.4772 18.008 32.3699 18.0325C26.9324 19.3675 20.6099 13.375 20.5499 13.315C20.4131 13.1948 20.2371 13.1285 20.0549 13.1285C19.8727 13.1285 19.6968 13.1948 19.5599 13.315L14.9999 17.3875C14.8667 17.5087 14.7815 17.6737 14.7599 17.8525C14.7451 18.1348 14.7451 18.4177 14.7599 18.7C14.6172 18.6521 14.4679 18.6268 14.3174 18.625H14.2499L13.5749 15.445C13.3346 14.3549 13.2637 13.2342 13.3649 12.1225ZM14.9999 22.45C14.9999 23.95 14.4074 24.625 14.2499 24.625C14.0924 24.625 13.4999 23.875 13.4999 22.375C13.4999 20.875 14.0924 20.125 14.2499 20.125C14.4074 20.125 14.6174 20.425 14.8049 21.0325C14.8649 21.4975 14.9299 21.97 14.9999 22.45ZM11.5799 18.49C11.5838 17.3898 11.7352 16.2951 12.0299 15.235C12.0299 15.4075 12.0824 15.58 12.1124 15.76L12.8624 19.4275C12.292 20.2936 12.0062 21.3162 12.0449 22.3525C12.0449 24.5125 12.9674 26.1025 14.2349 26.1025C14.5166 26.0901 14.7911 26.01 15.0352 25.869C15.2793 25.728 15.4859 25.5303 15.6374 25.2925C16.1652 27.0352 17.0574 28.6458 18.2549 30.0175V31.6525L17.0474 31.9075C15.1666 32.2099 13.3236 32.7127 11.5499 33.4075L11.5799 18.49ZM40.8299 44.3725V47.545H7.15492V44.3725V42.205C7.15492 38.905 8.45242 36.7225 11.4224 35.125C13.1294 34.3029 14.9453 33.7296 16.8149 33.4225C14.7235 35.5915 13.2367 38.2704 12.5024 41.1925C12.4758 41.3195 12.4825 41.4512 12.5219 41.5747C12.5613 41.6983 12.6322 41.8095 12.7274 41.8975C12.8251 41.9916 12.948 42.0552 13.0812 42.0805C13.2144 42.1058 13.3521 42.0917 13.4774 42.04L18.9074 40.1125L22.4099 43.1575L23.2499 45.5275C23.3085 45.6758 23.4128 45.8015 23.5476 45.8864C23.6825 45.9714 23.8409 46.0112 23.9999 46C24.1589 46.0112 24.3173 45.9714 24.4522 45.8864C24.5871 45.8015 24.6913 45.6758 24.7499 45.5275L25.6499 43.12L29.0999 40.12L34.5299 42.0475C34.6553 42.0992 34.7929 42.1133 34.9261 42.088C35.0593 42.0627 35.1823 41.9991 35.2799 41.905C35.3752 41.817 35.446 41.7058 35.4854 41.5822C35.5249 41.4587 35.5316 41.327 35.5049 41.2C34.7769 38.2786 33.2951 35.5994 31.2074 33.43C33.0821 33.7359 34.9031 34.3093 36.6149 35.1325C39.6149 36.73 40.9049 38.8825 40.8824 42.2125L40.8299 44.3725Z" fill="currentColor" stroke="currentColor" stroke-width="0.5"/>
</svg>
