<svg viewBox="0 0 48 48" fill="none" xmlns="http://www.w3.org/2000/svg">
<path d="M37.5713 43.7665H7.75C5.6825 43.7665 4 42.084 4 40.0165V10.194C4 8.12649 5.6825 6.44399 7.75 6.44399H28.0175C28.7088 6.44399 29.2675 7.00399 29.2675 7.69399C29.2675 8.38399 28.7088 8.94399 28.0175 8.94399H7.75C7.06125 8.94399 6.5 9.50524 6.5 10.194V40.0165C6.5 40.7052 7.06125 41.2665 7.75 41.2665H37.5713C38.2612 41.2665 38.8213 40.7052 38.8213 40.0165V19.7477C38.8213 19.0577 39.38 18.4977 40.0713 18.4977C40.7625 18.4977 41.3213 19.0577 41.3213 19.7477V40.0165C41.3213 42.084 39.64 43.7665 37.5713 43.7665ZM34.6025 33.274C34.6 33.274 34.5987 33.274 34.5962 33.274L10.49 33.1627C9.79875 33.1602 9.2425 32.5977 9.245 31.9077C9.2475 31.219 9.8075 30.6627 10.495 30.6627C10.4963 30.6627 10.4987 30.6627 10.5 30.6627L34.6075 30.774C35.2975 30.7765 35.855 31.339 35.8513 32.029C35.8488 32.7177 35.29 33.274 34.6025 33.274ZM23.0638 26.9227C22.475 26.9227 22.0875 26.6727 21.8675 26.4652C21.4963 26.1152 20.9813 25.3015 21.6925 23.7765L22.48 22.089C23.125 20.709 24.475 18.7815 25.5537 17.7015L36.5 6.75524C36.5037 6.75274 36.5062 6.75024 36.5088 6.74774C36.5112 6.74524 36.5138 6.74274 36.5163 6.74024L37.08 6.17649C38.54 4.71524 40.8037 4.59899 42.125 5.91774C43.445 7.23649 43.3288 9.50024 41.8662 10.9627C41.8662 10.9627 41.1963 11.6527 41.1338 11.6952L30.34 22.489C29.2775 23.5515 27.4088 24.944 26.0837 25.6615L24.5612 26.4827C23.9612 26.8065 23.465 26.9227 23.0638 26.9227ZM37.3925 9.39899L27.3225 19.4702C26.4488 20.3452 25.2675 22.029 24.7463 23.1477L24.5 23.6727L24.895 23.4602C26.0012 22.8615 27.6863 21.6077 28.5725 20.7202L38.6437 10.649L37.3925 9.39899ZM39.2038 7.67399L40.3687 8.83899C40.6187 8.39399 40.59 7.91774 40.3575 7.68524C40.1012 7.42899 39.6237 7.44149 39.2038 7.67399Z" fill="currentColor"/>
</svg>
