<svg viewBox="0 0 48 48" fill="none" xmlns="http://www.w3.org/2000/svg">
<path d="M43.6081 14.5755C45.0267 17.5142 45.7591 20.7368 45.7501 24C45.753 28.1837 44.5483 32.2794 42.2808 35.7953C40.0132 39.3113 36.779 42.098 32.9666 43.8211C29.1541 45.5442 24.9254 46.1303 20.788 45.5091C16.6506 44.8879 12.7805 43.0858 9.64209 40.3192L11.2711 38.6932C11.3673 38.5973 11.4357 38.4771 11.469 38.3454C11.5023 38.2137 11.4991 38.0755 11.4599 37.9454C11.4207 37.8153 11.3469 37.6984 11.2465 37.607C11.146 37.5156 11.0225 37.4532 10.8893 37.4265L5.58759 36.3637C5.46655 36.3395 5.3414 36.3455 5.22325 36.3812C5.1051 36.417 4.99759 36.4813 4.91027 36.5686C4.82295 36.6558 4.75851 36.7633 4.72267 36.8814C4.68684 36.9995 4.68071 37.1246 4.70484 37.2457L5.76009 42.5467C5.78665 42.6797 5.84876 42.803 5.93983 42.9035C6.0309 43.004 6.14751 43.0779 6.27724 43.1173C6.40698 43.1568 6.545 43.1604 6.6766 43.1276C6.8082 43.0949 6.92846 43.0271 7.02459 42.9315L8.57934 41.3805C11.928 44.3572 16.0659 46.3023 20.4946 46.9813C24.9234 47.6603 29.4539 47.0444 33.5406 45.2076C37.6273 43.3708 41.0958 40.3917 43.5281 36.6289C45.9605 32.8662 47.2531 28.4804 47.2501 24C47.2597 20.5113 46.4765 17.0661 44.9596 13.9245L43.6081 14.5755ZM6.95709 40.8795L6.39534 38.0557L9.21984 38.622L6.95709 40.8795ZM4.39209 33.4245C2.9735 30.4857 2.24107 27.2631 2.25009 24C2.24922 19.8163 3.45523 15.7212 5.72346 12.2058C7.9917 8.69039 11.2259 5.90392 15.0381 4.18057C18.8503 2.45722 23.0787 1.87015 27.2163 2.48978C31.3538 3.10941 35.2247 4.90943 38.3648 7.67396L36.7291 9.30671C36.6328 9.40257 36.5644 9.52277 36.5312 9.65448C36.4979 9.78618 36.501 9.92445 36.5402 10.0545C36.5794 10.1846 36.6532 10.3016 36.7537 10.393C36.8542 10.4844 36.9776 10.5467 37.1108 10.5735L42.4126 11.6362C42.5336 11.6604 42.6588 11.6544 42.7769 11.6187C42.8951 11.5829 43.0026 11.5186 43.0899 11.4314C43.1772 11.3441 43.2417 11.2367 43.2775 11.1185C43.3133 11.0004 43.3195 10.8753 43.2953 10.7542L42.2401 5.45321C42.2135 5.32022 42.1514 5.19693 42.0603 5.09644C41.9693 4.99596 41.8527 4.92205 41.7229 4.88257C41.5932 4.84309 41.4552 4.83953 41.3236 4.87227C41.192 4.905 41.0717 4.9728 40.9756 5.06846L39.4276 6.61271C36.0772 3.63808 31.9385 1.69511 27.5096 1.01765C23.0808 0.340182 18.5505 0.957092 14.464 2.79413C10.3776 4.63117 6.90914 7.61004 4.47611 11.3722C2.04307 15.1344 0.749158 19.5196 0.750088 24C0.740427 27.4886 1.52365 30.9338 3.04059 34.0755L4.39209 33.4245ZM41.0431 7.12046L41.6048 9.94421L38.7803 9.37496L41.0431 7.12046Z" fill="currentColor" stroke="currentColor" stroke-width="0.5"/>
<path d="M33.9533 37.6335C33.99 37.6335 34.0283 37.6335 34.0643 37.6335C34.7895 37.6328 35.4974 37.4116 36.094 36.9993C36.6906 36.5869 37.1477 36.0028 37.4045 35.3246C37.6614 34.6464 37.706 33.9061 37.5323 33.202C37.3586 32.4978 36.9749 31.8632 36.432 31.3822L29.6588 25.3755C29.9367 24.3207 29.9212 23.2101 29.6142 22.1635C29.3071 21.1168 28.7201 20.1739 27.9164 19.4365C27.1127 18.699 26.1229 18.195 25.0538 17.9789C23.9847 17.7627 22.8768 17.8426 21.8498 18.21C21.7306 18.2524 21.624 18.3243 21.5401 18.419C21.4561 18.5137 21.3975 18.6281 21.3697 18.7515C21.3418 18.875 21.3457 19.0034 21.3808 19.125C21.416 19.2466 21.4813 19.3572 21.5708 19.4467L23.3295 21.2062L21.2085 23.3272L19.4498 21.5685C19.3603 21.4789 19.2496 21.4134 19.1279 21.3781C19.0063 21.3428 18.8777 21.3389 18.7541 21.3668C18.6306 21.3946 18.5161 21.4533 18.4213 21.5374C18.3266 21.6214 18.2547 21.7281 18.2123 21.8475C17.845 22.8746 17.7652 23.9824 17.9814 25.0515C18.1975 26.1206 18.7015 27.1104 19.4389 27.9141C20.1763 28.7178 21.1192 29.305 22.1658 29.6121C23.2124 29.9193 24.323 29.9349 25.3778 29.6572L31.3853 36.4297C31.7073 36.7965 32.1017 37.0927 32.5436 37.2998C32.9855 37.507 33.4654 37.6206 33.9533 37.6335ZM25.6193 28.05C25.5337 28.0502 25.4488 28.0646 25.368 28.0927C24.6705 28.3433 23.9217 28.4172 23.1886 28.3076C22.4555 28.198 21.7611 27.9085 21.1673 27.4648C20.5735 27.0212 20.0989 26.4373 19.786 25.7654C19.473 25.0935 19.3315 24.3545 19.374 23.6145L20.6783 24.9195C20.8216 25.055 21.0113 25.1305 21.2085 25.1305C21.4058 25.1305 21.5955 25.055 21.7388 24.9195L24.921 21.7372C25.0616 21.5966 25.1406 21.4059 25.1406 21.207C25.1406 21.0081 25.0616 20.8174 24.921 20.6767L23.616 19.3725C24.356 19.33 25.095 19.4715 25.7669 19.7844C26.4389 20.0973 27.0227 20.5719 27.4664 21.1657C27.91 21.7595 28.1996 22.454 28.3091 23.1871C28.4187 23.9201 28.3449 24.6689 28.0943 25.3665C28.0443 25.5073 28.0375 25.6599 28.0748 25.8046C28.112 25.9493 28.1917 26.0796 28.3035 26.1787L35.4375 32.505C35.6494 32.6928 35.8206 32.922 35.9405 33.1784C36.0605 33.4348 36.1267 33.7131 36.1352 33.996C36.1436 34.279 36.094 34.5607 35.9895 34.8238C35.885 35.087 35.7278 35.3259 35.5275 35.526C35.3289 35.7282 35.0902 35.8866 34.8267 35.9911C34.5632 36.0956 34.2808 36.1438 33.9975 36.1327C33.7145 36.1254 33.436 36.0597 33.1796 35.9396C32.9231 35.8196 32.6942 35.6479 32.5073 35.4352L26.1803 28.302C26.1099 28.2227 26.0235 28.1593 25.9268 28.1158C25.8301 28.0724 25.7253 28.05 25.6193 28.05Z" fill="currentColor" stroke="currentColor" stroke-width="0.5"/>
<path d="M34.5936 27.75C35.4553 25.3345 35.4692 22.6976 34.6331 20.273C33.797 17.8485 32.1607 15.7807 29.9933 14.4097C27.8259 13.0387 25.2564 12.4461 22.7075 12.7294C20.1585 13.0127 17.7819 14.1551 15.9684 15.9685C14.1549 17.782 13.0126 20.1586 12.7293 22.7076C12.446 25.2565 13.0386 27.826 14.4096 29.9934C15.7806 32.1608 17.8484 33.7971 20.2729 34.6332C22.6975 35.4693 25.3343 35.4554 27.7499 34.5938L26.6654 33.3705C24.581 33.9686 22.357 33.8573 20.3427 33.054C18.3285 32.2507 16.6382 30.801 15.5374 28.9327C14.4366 27.0643 13.9877 24.8832 14.2613 22.732C14.5349 20.5808 15.5154 18.5815 17.0487 17.0481C18.5821 15.5147 20.5815 14.5343 22.7326 14.2607C24.8838 13.9871 27.065 14.436 28.9333 15.5368C30.8017 16.6375 32.2514 18.3278 33.0546 20.3421C33.8579 22.3563 33.9693 24.5804 33.3711 26.6648L34.5936 27.75ZM34.4669 34.467C34.5717 34.3621 34.643 34.2285 34.6719 34.083C34.7008 33.9375 34.6859 33.7868 34.6291 33.6498C34.5723 33.5128 34.4762 33.3957 34.3529 33.3133C34.2295 33.2309 34.0846 33.187 33.9363 33.187C33.788 33.187 33.643 33.2309 33.5197 33.3133C33.3964 33.3957 33.3002 33.5128 33.2434 33.6498C33.1867 33.7868 33.1717 33.9375 33.2006 34.083C33.2295 34.2285 33.3008 34.3621 33.4056 34.467C33.4753 34.5368 33.558 34.5921 33.6491 34.6298C33.7401 34.6676 33.8377 34.687 33.9363 34.687C34.0348 34.687 34.1324 34.6676 34.2235 34.6298C34.3145 34.5921 34.3972 34.5368 34.4669 34.467Z" fill="currentColor" stroke="currentColor" stroke-width="0.5"/>
<path d="M38.2957 27.75C38.8802 27.7492 39.4406 27.5166 39.8538 27.1032C40.267 26.6899 40.4994 26.1295 40.5 25.545V22.455C40.4994 21.8705 40.267 21.3101 39.8538 20.8968C39.4406 20.4834 38.8802 20.2508 38.2957 20.25C38.1418 20.2522 37.9912 20.2057 37.8653 20.117C37.7395 20.0284 37.645 19.9022 37.5952 19.7565C37.3399 18.9408 37.0113 18.1498 36.6135 17.3932C36.545 17.2548 36.5222 17.0982 36.5482 16.946C36.5742 16.7937 36.6477 16.6536 36.7583 16.5458L36.7732 16.53C37.1802 16.1149 37.407 15.556 37.4045 14.9747C37.4019 14.3934 37.1703 13.8366 36.7598 13.425L34.575 11.2395C34.1548 10.8379 33.5959 10.6137 33.0146 10.6137C32.4333 10.6137 31.8744 10.8379 31.4543 11.2395C31.3465 11.35 31.2064 11.4234 31.0543 11.4493C30.9022 11.4751 30.7457 11.4521 30.6075 11.3835C29.8503 10.9855 29.0585 10.6569 28.242 10.4018C28.0972 10.352 27.9718 10.2579 27.8835 10.1328C27.7952 10.0078 27.7485 9.85809 27.75 9.705C27.7494 9.12051 27.517 8.56012 27.1038 8.14675C26.6906 7.73338 26.1302 7.50079 25.5457 7.5H22.4542C22.1625 7.50127 21.8738 7.5602 21.6049 7.67339C21.336 7.78659 21.0921 7.95182 20.8873 8.15959C20.6824 8.36736 20.5207 8.61357 20.4113 8.88406C20.302 9.15455 20.2471 9.444 20.25 9.73575C20.2526 9.88016 20.2094 10.0217 20.1267 10.1401C20.044 10.2585 19.926 10.3477 19.7895 10.395C18.9621 10.6514 18.1599 10.9833 17.3932 11.3865C17.254 11.4547 17.0966 11.477 16.9439 11.45C16.7912 11.4231 16.651 11.3483 16.5435 11.2365C16.1235 10.8353 15.565 10.6115 14.9843 10.6115C14.4035 10.6115 13.845 10.8353 13.425 11.2365L11.2403 13.425C10.83 13.8365 10.5985 14.3931 10.5958 14.9742C10.5932 15.5553 10.8196 16.114 11.226 16.5292L11.2418 16.5458C11.3522 16.6535 11.4258 16.7934 11.452 16.9455C11.4781 17.0976 11.4554 17.2541 11.3872 17.3925C10.989 18.1495 10.6599 18.941 10.404 19.7572C10.3544 19.9028 10.26 20.0289 10.1342 20.1174C10.0085 20.2059 9.85799 20.2524 9.70425 20.25C9.11976 20.2508 8.55945 20.4834 8.14622 20.8968C7.733 21.3101 7.5006 21.8705 7.5 22.455V25.545C7.5006 26.1295 7.733 26.6899 8.14622 27.1032C8.55945 27.5166 9.11976 27.7492 9.70425 27.75C9.85816 27.7478 10.0088 27.7943 10.1347 27.883C10.2605 27.9716 10.355 28.0978 10.4048 28.2435C10.6601 29.0592 10.9887 29.8502 11.3865 30.6067C11.455 30.7452 11.4778 30.9018 11.4518 31.054C11.4258 31.2063 11.3523 31.3464 11.2418 31.4543L11.2267 31.47C10.8198 31.8851 10.593 32.444 10.5955 33.0253C10.5981 33.6066 10.8297 34.1634 11.2403 34.575L13.425 36.7605C13.8452 37.1621 14.4041 37.3863 14.9854 37.3863C15.5667 37.3863 16.1256 37.1621 16.5458 36.7605C16.6537 36.6503 16.7937 36.5771 16.9458 36.5513C17.0978 36.5254 17.2542 36.5482 17.3925 36.6165C18.1497 37.0145 18.9415 37.3431 19.758 37.5983C19.9028 37.648 20.0282 37.7421 20.1165 37.8672C20.2048 37.9922 20.2515 38.1419 20.25 38.295C20.2506 38.8795 20.483 39.4399 20.8962 39.8532C21.3094 40.2666 21.8698 40.4992 22.4542 40.5H25.5457C26.1302 40.4992 26.6906 40.2666 27.1038 39.8532C27.517 39.4399 27.7494 38.8795 27.75 38.295C27.7478 38.1414 27.7942 37.991 27.8826 37.8654C27.9709 37.7397 28.0967 37.6452 28.242 37.5952C28.7917 37.4186 29.3302 37.2087 29.8545 36.9668L28.8135 35.7937C28.479 35.931 28.1385 36.0562 27.7957 36.1635C27.3438 36.3063 26.9496 36.5905 26.6713 36.9743C26.393 37.358 26.2453 37.821 26.25 38.295C26.2498 38.4818 26.1756 38.6609 26.0436 38.793C25.9115 38.9252 25.7325 38.9996 25.5457 39H22.4542C22.2675 38.9996 22.0885 38.9252 21.9564 38.793C21.8244 38.6609 21.7502 38.4818 21.75 38.295C21.7547 37.821 21.607 37.358 21.3287 36.9743C21.0504 36.5905 20.6562 36.3063 20.2042 36.1635C19.4748 35.9352 18.7674 35.6416 18.0907 35.286C17.7764 35.1199 17.4263 35.0331 17.0707 35.0332C16.7753 35.0343 16.4829 35.0936 16.2105 35.2079C15.938 35.3222 15.6908 35.4892 15.483 35.6992C15.3486 35.8274 15.17 35.8988 14.9843 35.8988C14.7985 35.8988 14.6199 35.8274 14.4855 35.6992L12.3 33.5145C12.1682 33.382 12.0942 33.2027 12.0942 33.0158C12.0942 32.8288 12.1682 32.6495 12.3 32.517C12.3056 32.5123 12.3106 32.507 12.315 32.5012C12.6491 32.168 12.868 31.7367 12.9396 31.2702C13.0113 30.8038 12.932 30.3267 12.7133 29.9085C12.3575 29.2322 12.0638 28.5251 11.8358 27.7957C11.6929 27.3438 11.4087 26.9496 11.025 26.6713C10.6412 26.393 10.1783 26.2453 9.70425 26.25C9.51746 26.2496 9.33845 26.1752 9.20644 26.043C9.07444 25.9109 9.0002 25.7318 9 25.545V22.455C9.0002 22.2682 9.07444 22.0891 9.20644 21.957C9.33845 21.8248 9.51746 21.7504 9.70425 21.75C10.1782 21.7548 10.6411 21.6073 11.0249 21.3292C11.4086 21.051 11.6929 20.6569 11.8358 20.205C12.0644 19.4752 12.3586 18.7675 12.7147 18.0907C12.9328 17.6727 13.0119 17.1961 12.9404 16.73C12.8689 16.264 12.6506 15.8329 12.3173 15.4995L12.3007 15.483C12.1689 15.3505 12.0949 15.1712 12.0949 14.9843C12.0949 14.7973 12.1689 14.618 12.3007 14.4855L14.4855 12.3C14.6197 12.1708 14.7987 12.0986 14.985 12.0986C15.1713 12.0986 15.3503 12.1708 15.4845 12.3C15.8177 12.6387 16.2509 12.8615 16.7202 12.9355C17.1896 13.0095 17.6703 12.9308 18.0915 12.711C18.7769 12.3506 19.4939 12.0539 20.2335 11.8245C20.6813 11.6824 21.071 11.3991 21.3443 11.017C21.6177 10.635 21.76 10.1747 21.75 9.705C21.7502 9.51821 21.8244 9.33912 21.9564 9.20697C22.0885 9.07482 22.2675 9.0004 22.4542 9H25.5457C25.7325 9.0004 25.9115 9.07482 26.0436 9.20697C26.1756 9.33912 26.2498 9.51821 26.25 9.705C26.2453 10.179 26.393 10.642 26.6713 11.0257C26.9496 11.4095 27.3438 11.6937 27.7957 11.8365C28.5252 12.0648 29.2326 12.3584 29.9093 12.714C30.3308 12.9339 30.8118 13.0125 31.2814 12.9381C31.751 12.8637 32.1841 12.6402 32.517 12.3007C32.6514 12.1726 32.83 12.1012 33.0158 12.1012C33.2015 12.1012 33.3801 12.1726 33.5145 12.3007L35.7 14.4855C35.8318 14.618 35.9058 14.7973 35.9058 14.9843C35.9058 15.1712 35.8318 15.3505 35.7 15.483C35.6944 15.4877 35.6894 15.493 35.685 15.4988C35.3509 15.832 35.132 16.2633 35.0604 16.7298C34.9887 17.1962 35.068 17.6733 35.2868 18.0915C35.6425 18.7678 35.9362 19.4749 36.1643 20.2042C36.3071 20.6562 36.5913 21.0504 36.975 21.3287C37.3588 21.607 37.8217 21.7547 38.2957 21.75C38.4825 21.7504 38.6615 21.8248 38.7936 21.957C38.9256 22.0891 38.9998 22.2682 39 22.455V25.545C38.9989 25.6399 38.979 25.7336 38.9412 25.8207C38.9035 25.9078 38.8488 25.9864 38.7803 26.0521C38.7117 26.1178 38.6308 26.1691 38.5422 26.2031C38.4536 26.237 38.3591 26.253 38.2643 26.25C37.7998 26.2491 37.3471 26.3955 36.9711 26.6682C36.5952 26.9408 36.3153 27.3256 36.1717 27.7673C36.063 28.1205 35.9355 28.4692 35.7967 28.8135L36.966 29.85C37.2133 29.3167 37.4268 28.7684 37.605 28.2083C37.6558 28.0679 37.7503 27.9476 37.8747 27.8651C37.9991 27.7826 38.1467 27.7422 38.2957 27.75Z" fill="currentColor" stroke="currentColor" stroke-width="0.5"/>
</svg>
