<svg viewBox="0 0 16 16" fill="none" xmlns="http://www.w3.org/2000/svg">
<path fill-rule="evenodd" clip-rule="evenodd" d="M6.99234 2.50133C9.47762 2.49783 11.4952 4.50971 11.4987 6.99499C11.5022 9.48027 9.49027 11.4978 7.00499 11.5013C4.51972 11.5048 2.50217 9.49293 2.49867 7.00765C2.49518 4.52237 4.50706 2.50482 6.99234 2.50133ZM6.99023 1.00133C10.3039 0.996667 12.994 3.67918 12.9987 6.99288C13.0006 8.3792 12.5322 9.65636 11.7441 10.6734L14.519 13.4405C14.8123 13.733 14.813 14.2079 14.5205 14.5012C14.228 14.7945 13.7531 14.7951 13.4598 14.5026L10.685 11.7357C9.67006 12.5271 8.39385 12.9994 7.0071 13.0013C3.6934 13.006 1.00333 10.3235 0.998673 7.00976C0.994012 3.69606 3.67652 1.00599 6.99023 1.00133Z" fill="currentColor"/>
</svg>
