<svg viewBox="0 0 88 40" fill="none" xmlns="http://www.w3.org/2000/svg">
<path d="M77.0109 20.0247C77.0126 20.174 76.9493 20.322 76.8248 20.4602C76.7002 20.5983 76.5167 20.7239 76.2849 20.8297L62.1334 27.2549C61.8763 27.376 61.5446 27.4587 61.1819 27.4923C60.9193 27.5131 60.6499 27.5073 60.3925 27.4759C60.1351 27.4444 59.8959 27.388 59.6917 27.3101C59.4874 27.2323 59.323 27.1351 59.2099 27.0254C59.0968 26.9157 59.0378 26.7959 59.0369 26.6748V22.5H34.8259C34.5847 22.5 34.3458 22.4781 34.1229 22.4362C33.9 22.3942 33.6975 22.3328 33.5269 22.2552C33.3564 22.1777 33.2211 22.0855 33.1287 21.9842C33.0364 21.8829 32.9889 21.7744 32.9889 21.6647V18.3349C32.9889 17.8749 33.8139 17.5 34.8259 17.5H59.0479V13.3023C59.0479 12.5898 61.0224 12.2299 62.1279 12.7349L76.2904 19.2147C76.5235 19.3213 76.7081 19.4478 76.8336 19.5868C76.9592 19.7257 77.0231 19.8744 77.0219 20.0247H77.0109ZM27.4834 21.875C27.4834 22.0407 27.3385 22.1996 27.0807 22.3169C26.8228 22.4341 26.4731 22.5 26.1084 22.5H23.3584C22.9937 22.5 22.644 22.4341 22.3861 22.3169C22.1283 22.1996 21.9834 22.0407 21.9834 21.875V18.125C21.9834 17.9592 22.1283 17.8 22.3861 17.6828C22.644 17.5656 22.9937 17.5 23.3584 17.5H26.1084C26.4731 17.5 26.8228 17.5656 27.0807 17.6828C27.3385 17.8 27.4834 17.9592 27.4834 18.125V21.875ZM16.4834 21.875C16.4834 22.0407 16.3385 22.1996 16.0807 22.3169C15.8228 22.4341 15.4731 22.5 15.1084 22.5H12.3584C11.9937 22.5 11.644 22.4341 11.3861 22.3169C11.1283 22.1996 10.9834 22.0407 10.9834 21.875V18.125C10.9834 17.9592 11.1283 17.8 11.3861 17.6828C11.644 17.5656 11.9937 17.5 12.3584 17.5H15.1084C15.4731 17.5 15.8228 17.5656 16.0807 17.6828C16.3385 17.8 16.4834 17.9592 16.4834 18.125V21.875Z" fill="currentColor"/>
</svg>
