<svg viewBox="0 0 16 16" fill="none" xmlns="http://www.w3.org/2000/svg">
<g clip-path="url(#clip0_1506_10298)">
<path d="M16 8C16 3.58172 12.4183 0 8 0C3.58172 0 0 3.58172 0 8C0 12.4183 3.58172 16 8 16C12.4183 16 16 12.4183 16 8Z" fill="#419FD9"/>
<path d="M16 8C16 3.58172 12.4183 0 8 0C3.58172 0 0 3.58172 0 8C0 12.4183 3.58172 16 8 16C12.4183 16 16 12.4183 16 8Z" fill="url(#paint0_linear_1506_10298)"/>
<path d="M3.5958 7.82394C5.92223 6.78908 7.47353 6.10681 8.24977 5.77714C10.466 4.83598 10.9265 4.67248 11.2267 4.66704C11.2927 4.66591 11.4403 4.68261 11.5359 4.76181C11.6166 4.82871 11.6388 4.91908 11.6495 4.98248C11.6601 5.04591 11.6733 5.19038 11.6628 5.30324C11.5427 6.59164 11.0231 9.71828 10.7587 11.1613C10.6468 11.7719 10.4265 11.9766 10.2133 11.9967C9.74987 12.0402 9.39793 11.684 8.9491 11.3835C8.2467 10.9135 7.84993 10.6208 7.16813 10.1621C6.38023 9.63198 6.891 9.34061 7.34003 8.86441C7.45753 8.73981 9.49943 6.84348 9.53897 6.67148C9.5439 6.64994 9.5485 6.56975 9.50183 6.52741C9.45517 6.48508 9.3863 6.49954 9.3366 6.51104C9.26617 6.52738 8.1441 7.28461 5.97043 8.78274C5.65193 9.00604 5.36347 9.11481 5.105 9.10911C4.82007 9.10285 4.27197 8.94464 3.8645 8.80941C3.36473 8.64351 2.96751 8.55585 3.0021 8.27415C3.02012 8.12741 3.21801 7.97734 3.5958 7.82394Z" fill="white"/>
</g>
<defs>
<linearGradient id="paint0_linear_1506_10298" x1="8" y1="0" x2="8" y2="15.8813" gradientUnits="userSpaceOnUse">
<stop stop-color="#2AABEE"/>
<stop offset="1" stop-color="#229ED9"/>
</linearGradient>
<clipPath id="clip0_1506_10298">
<rect width="16" height="16" fill="white"/>
</clipPath>
</defs>
</svg>
