<svg viewBox="0 0 32 32" fill="none" xmlns="http://www.w3.org/2000/svg">
<g clip-path="url(#clip0_1506_10255)">
<path d="M16.0001 31.9997C24.8366 31.9997 32 24.8363 32 15.9999C32 7.16338 24.8366 0 16.0001 0C7.16362 0 0.000244141 7.16338 0.000244141 15.9999C0.000244141 24.8363 7.16362 31.9997 16.0001 31.9997Z" fill="#55ACEE"/>
<path d="M25.8006 11.4985C25.1026 11.8078 24.3621 12.0105 23.6039 12.1C24.4027 11.6223 25.0004 10.8705 25.2858 9.98459C24.5351 10.43 23.7137 10.7438 22.8572 10.9124C22.4993 10.5307 22.0667 10.2265 21.5864 10.0189C21.1061 9.81118 20.5883 9.70438 20.065 9.70508C17.9533 9.70508 16.2406 11.4178 16.2406 13.5295C16.2406 13.8293 16.2745 14.121 16.3401 14.4011C13.1617 14.2417 10.3435 12.7192 8.4571 10.4047C8.11693 10.9884 7.93817 11.652 7.93915 12.3276C7.93915 13.6541 8.61482 14.8252 9.64045 15.5109C9.03308 15.4921 8.43909 15.3279 7.90835 15.032L7.90807 15.0805C7.90807 16.9335 9.22689 18.4791 10.9761 18.8302C10.6478 18.9197 10.309 18.9649 9.96873 18.9645C9.72173 18.9645 9.48244 18.9408 9.24914 18.8963C9.73571 20.4154 11.1478 21.5212 12.8217 21.5522C11.4669 22.6156 9.79375 23.1922 8.07149 23.1894C7.76346 23.1894 7.45829 23.1714 7.15967 23.1357C8.908 24.2598 10.9431 24.8564 13.0216 24.8541C20.0561 24.8541 23.9031 19.0267 23.9031 13.9724C23.9031 13.8067 23.8994 13.6416 23.892 13.4779C24.641 12.937 25.2874 12.2667 25.8006 11.4985Z" fill="white"/>
</g>
<defs>
<clipPath id="clip0_1506_10255">
<rect width="32" height="32" fill="white"/>
</clipPath>
</defs>
</svg>
