<svg viewBox="0 0 16 16" fill="none" xmlns="http://www.w3.org/2000/svg">
<g clip-path="url(#clip0_1506_10309)">
<circle cx="8" cy="8" r="8" fill="white"/>
<path fill-rule="evenodd" clip-rule="evenodd" d="M8 0C12.4185 0 16 3.58154 16 8C16 12.4185 12.4185 16 8 16C3.58154 16 0 12.4185 0 8C0 3.58154 3.58154 0 8 0ZM8.47908 3.25847C9.02308 3.32647 9.46276 3.45754 9.94492 3.69293C10.4194 3.92493 10.7231 4.14462 11.1246 4.544C11.5009 4.92123 11.7098 5.20707 11.9311 5.65077C12.2394 6.26954 12.4151 7.00555 12.4449 7.81539C12.456 8.0917 12.448 8.15323 12.3849 8.23231C12.2649 8.38523 12.0006 8.36001 11.9105 8.18801C11.8821 8.13108 11.8742 8.08216 11.8646 7.86123C11.8489 7.52185 11.8252 7.30216 11.7779 7.04C11.5911 6.01231 11.0978 5.19139 10.3102 4.60246C9.65415 4.10985 8.9757 3.86985 8.08708 3.81785C7.78647 3.80031 7.73447 3.78923 7.66647 3.73723C7.5397 3.63754 7.53354 3.40399 7.65539 3.29507C7.72954 3.22738 7.78154 3.21753 8.03938 3.22553C8.17384 3.23014 8.37169 3.24615 8.47938 3.25877L8.47908 3.25847ZM4.86431 3.42924C4.9197 3.44831 5.00493 3.49231 5.05416 3.524C5.35447 3.72277 6.19108 4.79169 6.46462 5.32553C6.62123 5.63015 6.67323 5.856 6.62431 6.02338C6.57354 6.20338 6.48985 6.29815 6.11508 6.59968C5.96493 6.72122 5.824 6.84584 5.80215 6.87908C5.74523 6.96123 5.69907 7.12216 5.69907 7.23601C5.70091 7.4997 5.87139 7.97816 6.096 8.34585C6.27016 8.6317 6.58155 8.99815 6.88986 9.27907C7.25201 9.61046 7.57138 9.8363 7.932 10.0148C8.39538 10.2455 8.67846 10.304 8.88554 10.2074C8.93784 10.1837 8.99323 10.152 9.01046 10.1378C9.02615 10.1237 9.14801 9.97538 9.28093 9.81107C9.53693 9.48892 9.59538 9.43692 9.77107 9.37692C9.99415 9.30122 10.2218 9.32153 10.4511 9.43846C10.6249 9.52861 11.0043 9.7637 11.2495 9.93416C11.572 10.16 12.2619 10.7222 12.3548 10.8342C12.5194 11.0363 12.5477 11.2954 12.4372 11.5809C12.3203 11.8825 11.8649 12.448 11.5468 12.6895C11.2591 12.9074 11.0551 12.9911 10.7862 13.0034C10.5646 13.0148 10.4732 12.9957 10.1901 12.8788C7.96984 11.9649 6.19723 10.6006 4.79015 8.72647C4.05477 7.74739 3.49477 6.7323 3.1123 5.67907C2.88923 5.06491 2.87847 4.79815 3.06154 4.484C3.14062 4.35138 3.47754 4.02277 3.72277 3.83969C4.13046 3.53662 4.31877 3.4243 4.46892 3.39292C4.57169 3.37076 4.75047 3.38831 4.86431 3.42924ZM8.5883 4.40338C9.5483 4.54399 10.2914 4.98923 10.7785 5.71231C11.052 6.11969 11.2228 6.59816 11.2812 7.11108C11.3018 7.29908 11.3018 7.64184 11.2797 7.69877C11.2591 7.75231 11.1926 7.82493 11.1357 7.85477C11.0741 7.88647 10.9428 7.88338 10.8702 7.84553C10.7483 7.784 10.712 7.68584 10.712 7.42092C10.712 7.01169 10.6059 6.58093 10.4228 6.24585C10.2165 5.8663 9.9116 5.54942 9.5403 5.32861C9.22246 5.13907 8.75262 4.99877 8.32431 4.964C8.16924 4.95138 8.08368 4.91969 8.02522 4.85169C7.98151 4.80364 7.95538 4.74218 7.95108 4.67736C7.94678 4.61254 7.96457 4.54817 8.00154 4.49476C8.08369 4.36707 8.21046 4.34645 8.5883 4.40338ZM8.92492 5.59538C9.23661 5.66185 9.47539 5.77999 9.67939 5.97138C9.94185 6.21907 10.0855 6.51908 10.1489 6.95016C10.1917 7.23108 10.1741 7.34185 10.0748 7.43324C9.98123 7.51847 9.80892 7.52185 9.70461 7.44124C9.62861 7.38431 9.60492 7.32431 9.58768 7.16185C9.56707 6.94554 9.52922 6.79384 9.4643 6.65323C9.32522 6.35476 9.08 6.20031 8.66585 6.14954C8.47108 6.12585 8.41261 6.104 8.34953 6.02954C8.23415 5.89231 8.27816 5.66953 8.43816 5.58768C8.49816 5.55753 8.52338 5.55447 8.65631 5.56216C8.74646 5.5675 8.83618 5.57859 8.92492 5.59538Z" fill="#7F4DA0"/>
</g>
<defs>
<clipPath id="clip0_1506_10309">
<rect width="16" height="16" fill="white"/>
</clipPath>
</defs>
</svg>
