<svg viewBox="0 0 16 16" fill="none" xmlns="http://www.w3.org/2000/svg">
<g clip-path="url(#clip0_1506_10304)">
<path d="M8 16C12.4183 16 16 12.4183 16 8C16 3.58172 12.4183 0 8 0C3.58172 0 0 3.58172 0 8C0 12.4183 3.58172 16 8 16Z" fill="#4D76A1"/>
<path fill-rule="evenodd" clip-rule="evenodd" d="M7.69782 11.5087H8.32572C8.32572 11.5087 8.51539 11.4878 8.61222 11.3834C8.70135 11.2876 8.6985 11.1076 8.6985 11.1076C8.6985 11.1076 8.68623 10.2651 9.07726 10.141C9.46273 10.0188 9.95772 10.9553 10.4824 11.3154C10.8791 11.5879 11.1806 11.5282 11.1806 11.5282L12.5834 11.5087C12.5834 11.5087 13.3173 11.4634 12.9693 10.8865C12.9408 10.8393 12.7667 10.4596 11.9263 9.67957C11.0467 8.86314 11.1645 8.99519 12.224 7.58295C12.8693 6.72288 13.1273 6.1978 13.0467 5.97291C12.9699 5.75871 12.4953 5.81533 12.4953 5.81533L10.9158 5.82517C10.9158 5.82517 10.7987 5.8092 10.7118 5.86111C10.627 5.91202 10.5724 6.03067 10.5724 6.03067C10.5724 6.03067 10.3224 6.69622 9.98895 7.26222C9.28561 8.45656 9.00439 8.5196 8.88945 8.44544C8.62206 8.2726 8.6888 7.75108 8.6888 7.38059C8.6888 6.22319 8.86435 5.7406 8.34697 5.61568C8.17527 5.57418 8.04892 5.5468 7.60983 5.54238C7.04625 5.53653 6.56922 5.54409 6.29913 5.67643C6.11944 5.76442 5.98082 5.9605 6.06525 5.97177C6.16964 5.98574 6.40608 6.03551 6.53143 6.20622C6.69329 6.4264 6.68759 6.92097 6.68759 6.92097C6.68759 6.92097 6.78057 8.28344 6.4704 8.45271C6.25748 8.5688 5.96542 8.33178 5.33838 7.24825C5.01708 6.69322 4.77451 6.07972 4.77451 6.07972C4.77451 6.07972 4.72773 5.96507 4.64431 5.90374C4.54306 5.82945 4.40159 5.80577 4.40159 5.80577L2.90064 5.81561C2.90064 5.81561 2.67532 5.82189 2.59261 5.91986C2.51903 6.00699 2.58676 6.18725 2.58676 6.18725C2.58676 6.18725 3.76185 8.93644 5.09238 10.3219C6.31239 11.5921 7.69782 11.5087 7.69782 11.5087Z" fill="white"/>
</g>
<defs>
<clipPath id="clip0_1506_10304">
<rect width="16" height="16" fill="white"/>
</clipPath>
</defs>
</svg>
